<?xml version="1.0" encoding="utf-8"?>
<!-- Generator: Adobe Illustrator 16.0.0, SVG Export Plug-In . SVG Version: 6.00 Build 0)  -->
<!DOCTYPE svg PUBLIC "-//W3C//DTD SVG 1.1//EN" "http://www.w3.org/Graphics/SVG/1.1/DTD/svg11.dtd">
<svg version="1.1" id="Layer_1" xmlns="http://www.w3.org/2000/svg" xmlns:xlink="http://www.w3.org/1999/xlink" x="0px" y="0px"
	 width="341px" height="302px" viewBox="218.5 308.5 341 302" enable-background="new 218.5 308.5 341 302" xml:space="preserve">
<g>
	<g>
		<defs>
			<rect id="SVGID_1_" x="239.676" y="318.298" width="300" height="300"/>
		</defs>
		<clipPath id="SVGID_2_">
			<use xlink:href="#SVGID_1_"  overflow="visible"/>
		</clipPath>
		<path clip-path="url(#SVGID_2_)" fill="#221F72" d="M539.624,553.787c-12.282-101.522-48.516-136.202-80.478-166.795
			c-5.289-5.068-12.239-7.852-19.586-7.852c-3.822,0-7.536,0.758-11.046,2.249c-10.43,4.464-17.175,14.642-17.175,25.913v30.121
			c-9.191-1.509-16.501-10.075-16.501-20.023v-69.961h-8.805v69.961c0,10.792-8.519,19.918-18.706,20.247v-30.345
			c0-11.378-6.599-21.541-16.824-25.913c-3.508-1.491-7.191-2.249-10.941-2.249c-7.179,0-14.049,2.783-19.337,7.852
			c-43.081,41.221-69.976,97.061-79.965,165.967c-1.487,10.268,1.509,20.617,8.248,28.41c6.892,7.968,16.648,12.531,26.792,12.531
			h60.366c17.461,0,31.662-14.723,31.662-32.819V446.446c9.596-0.205,18.186-5.694,23.115-13.704
			c4.549,7.365,12.201,12.598,20.896,13.561v114.778c0,18.098,14.53,32.819,32.373,32.819h60.755c9.981,0,19.65-4.452,26.521-12.209
			C537.705,574.097,540.854,563.93,539.624,553.787 M358.526,561.081c0,13.242-10.254,24.017-22.859,24.017h-60.366
			c-7.574,0-14.919-3.449-20.127-9.478c-5.069-5.859-7.324-13.66-6.196-21.396c9.683-66.922,35.713-121.04,77.336-160.873
			c3.653-3.497,8.342-5.417,13.25-5.417c2.562,0,5.083,0.517,7.484,1.553c7.076,3.029,11.479,9.847,11.479,17.812L358.526,561.081
			L358.526,561.081z M524.396,575.854c-5.207,5.875-12.466,9.243-19.929,9.243h-60.755c-12.773,0-23.57-11.001-23.57-24.017V407.302
			c0-7.756,4.646-14.744,11.829-17.812c2.41-1.037,4.958-1.553,7.588-1.553c5.068,0,9.853,1.919,13.508,5.417
			c32.408,31.019,65.932,63.091,77.825,161.488C531.817,562.495,529.443,570.148,524.396,575.854"/>
	</g>
</g>
</svg>
