<?xml version="1.0" encoding="utf-8"?>
<!-- Generator: Adobe Illustrator 16.0.0, SVG Export Plug-In . SVG Version: 6.00 Build 0)  -->
<!DOCTYPE svg PUBLIC "-//W3C//DTD SVG 1.1//EN" "http://www.w3.org/Graphics/SVG/1.1/DTD/svg11.dtd">
<svg version="1.1" id="Layer_1" xmlns="http://www.w3.org/2000/svg" xmlns:xlink="http://www.w3.org/1999/xlink" x="0px" y="0px"
	 width="219px" height="348px" viewBox="278.5 292.5 219 348" enable-background="new 278.5 292.5 219 348" xml:space="preserve">
<g>
	<g>
		<defs>
			<rect id="SVGID_1_" x="309.435" y="315.101" width="160.481" height="300"/>
		</defs>
		<clipPath id="SVGID_2_">
			<use xlink:href="#SVGID_1_"  overflow="visible"/>
		</clipPath>
		<path clip-path="url(#SVGID_2_)" fill="#EF018D" d="M318.385,615.101l-7.521-7.147c0.578-0.607,35.693-37.685,72.816-83.6
			c-25.536-31.398-47.313-60.81-63.56-88.979c-6.991-12.118-10.69-25.964-10.69-40.034c0-44.242,36.002-80.244,80.241-80.244
			c44.245,0,80.244,36.002,80.244,80.244c0,14.02-3.677,27.616-10.913,40.412c-16.268,28.771-39.896,60.879-61.948,88.557
			c19.87,24.171,41.901,49.578,65.267,76.517l6.328,7.303l-7.845,6.797l-6.32-7.295c-22.873-26.382-44.487-51.291-64.064-75.051
			c-6.369,7.857-12.528,15.256-18.234,22.022C342.903,589.269,318.627,614.852,318.385,615.101 M389.672,325.479
			c-38.519,0-69.857,31.34-69.857,69.862c0,12.246,3.215,24.298,9.298,34.854c15.623,27.081,36.592,55.511,61.205,85.876
			c22.141-27.854,44.297-58.261,59.654-85.427c6.352-11.221,9.565-23.101,9.565-35.303
			C459.537,356.819,428.197,325.479,389.672,325.479"/>
	</g>
</g>
</svg>
