<?xml version="1.0" encoding="utf-8"?>
<!-- Generator: Adobe Illustrator 16.0.0, SVG Export Plug-In . SVG Version: 6.00 Build 0)  -->
<!DOCTYPE svg PUBLIC "-//W3C//DTD SVG 1.1//EN" "http://www.w3.org/Graphics/SVG/1.1/DTD/svg11.dtd">
<svg version="1.1" id="Layer_1" xmlns="http://www.w3.org/2000/svg" xmlns:xlink="http://www.w3.org/1999/xlink" x="0px" y="0px"
	 width="341px" height="295px" viewBox="222.5 308.5 341 295" enable-background="new 222.5 308.5 341 295" xml:space="preserve">
<g>
	<g>
		<defs>
			<rect id="SVGID_1_" x="245.765" y="330.459" width="300" height="252.085"/>
		</defs>
		<clipPath id="SVGID_2_">
			<use xlink:href="#SVGID_1_"  overflow="visible"/>
		</clipPath>
		<path clip-path="url(#SVGID_2_)" fill="#B20738" d="M395.801,582.544L395.801,582.544c-1.156,0-2.047-0.337-2.432-0.498
			c-42.462-16.509-112.078-80.814-135.538-125.192c-8.009-13.326-12.066-28.141-12.066-44.033c0-45.41,34.761-82.364,77.479-82.364
			c32.725,0,61.192,21.954,72.502,53.042c4.148-11.55,10.72-22.042,19.362-30.678c14.413-14.421,33.266-22.364,53.093-22.364
			c42.759,0,77.562,36.892,77.562,82.24c0,15.868-4.071,30.703-12.113,44.084c-23.461,44.378-92.9,108.626-135.322,125.208
			C397.501,582.354,396.658,582.544,395.801,582.544 M323.244,340.431c-37.222,0-67.508,32.476-67.508,72.389
			c0,14.103,3.6,27.228,10.712,39.009l0.136,0.249c22.335,42.355,88.268,103.587,129.188,120.198
			C436.634,555.679,502.53,494.419,524.896,452l0.134-0.246c7.141-11.836,10.766-24.976,10.766-39.06
			c0-39.848-30.329-72.265-67.595-72.265c-35.303,0-64.93,29.678-67.456,67.551h-9.946
			C388.279,370.108,358.602,340.431,323.244,340.431"/>
	</g>
</g>
</svg>
