<?xml version="1.0" encoding="utf-8"?>
<!-- Generator: Adobe Illustrator 16.0.0, SVG Export Plug-In . SVG Version: 6.00 Build 0)  -->
<!DOCTYPE svg PUBLIC "-//W3C//DTD SVG 1.1//EN" "http://www.w3.org/Graphics/SVG/1.1/DTD/svg11.dtd">
<svg version="1.1" id="Layer_1" xmlns="http://www.w3.org/2000/svg" xmlns:xlink="http://www.w3.org/1999/xlink" x="0px" y="0px"
	 width="347px" height="346.25px" viewBox="208.5 331.5 347 346.25" enable-background="new 208.5 331.5 347 346.25"
	 xml:space="preserve">
<g>
	<g>
		<defs>
			<rect id="SVGID_1_" x="234" y="367.838" width="300" height="288.834"/>
		</defs>
		<clipPath id="SVGID_2_">
			<use xlink:href="#SVGID_1_"  overflow="visible"/>
		</clipPath>
		<path clip-path="url(#SVGID_2_)" fill="#FE184B" d="M492.611,382.604c7.917,12.682,30.812,53.624,30.812,103.004
			c0,88.499-62.541,160.487-139.424,160.487c-76.882,0-139.424-71.988-139.424-160.487c0-49.372,22.896-90.322,30.816-103.004
			c4.71,3.388,13.125,9.829,22.343,18.772c13.513,13.118,23.551,26.502,29.828,39.778l10.407,22.042l8.979-22.657
			c11.278-28.462,29.563-49.805,37.05-57.81c7.492,8.013,25.767,29.348,37.053,57.81l8.974,22.657l10.415-22.042
			c6.275-13.275,16.312-26.66,29.823-39.778C479.486,392.433,487.895,385.991,492.611,382.604 M384,367.842l-4.006,3.856
			c-1.274,1.229-27.898,27.158-42.876,64.939c-6.826-14.45-17.542-28.806-32.025-42.854c-14.521-14.085-27.353-22.423-27.895-22.778
			l-4.677-3.021l-3.197,4.566C267.886,374.62,234,423.89,234,485.607c0,94.328,67.291,171.063,150,171.063
			c82.713,0,150-76.735,150-171.063c0-61.718-33.882-110.987-35.324-113.058l-3.187-4.566l-4.688,3.021
			c-0.542,0.355-13.374,8.687-27.891,22.778c-14.487,14.048-25.202,28.402-32.028,42.854
			c-14.979-37.781-41.602-63.708-42.877-64.939L384,367.842z"/>
	</g>
</g>
</svg>
