<?xml version="1.0" encoding="utf-8"?>
<!-- Generator: Adobe Illustrator 16.0.0, SVG Export Plug-In . SVG Version: 6.00 Build 0)  -->
<!DOCTYPE svg PUBLIC "-//W3C//DTD SVG 1.1//EN" "http://www.w3.org/Graphics/SVG/1.1/DTD/svg11.dtd">
<svg version="1.1" id="Layer_1" xmlns="http://www.w3.org/2000/svg" xmlns:xlink="http://www.w3.org/1999/xlink" x="0px" y="0px"
	 width="26.593px" height="26.598px" viewBox="0 0 26.593 26.598" enable-background="new 0 0 26.593 26.598" xml:space="preserve">
<g>
	<g>
		<path fill="#81D3F0" d="M13.274,18.561c-3.048,0-5.527-2.479-5.527-5.526s2.479-5.526,5.527-5.526c3.05,0,5.526,2.479,5.526,5.526
			S16.324,18.561,13.274,18.561z M13.274,10.069c-1.635,0-2.964,1.33-2.964,2.965c0,1.636,1.329,2.966,2.964,2.966
			c1.636,0,2.965-1.33,2.965-2.966C16.239,11.399,14.91,10.069,13.274,10.069z"/>
	</g>
	<path fill="#81D3F0" d="M23.07,13.034c0-0.233-0.009-0.465-0.025-0.694l3.549-1.205l-0.408-1.996l-3.76,0.401
		c-0.174-0.451-0.377-0.886-0.61-1.302l2.444-2.564l-1.288-1.58l-2.874,1.919c-0.396-0.386-0.823-0.736-1.279-1.051l1.102-3.34
		l-1.84-0.876L16.3,3.717c-0.518-0.168-1.057-0.295-1.605-0.375l-0.434-3.431h-2.037l-0.329,3.425
		c-0.55,0.078-1.089,0.203-1.606,0.369L8.514,0.746L6.673,1.622l1.096,3.315C7.306,5.253,6.872,5.606,6.472,5.994l-2.853-1.9
		l-1.287,1.58l2.42,2.536C4.513,8.633,4.301,9.076,4.125,9.535L0.408,9.138L0,11.135l3.505,1.19
		c-0.016,0.234-0.026,0.471-0.026,0.709c0,0.311,0.017,0.618,0.045,0.923L0.15,15.046l0.437,1.991l3.607-0.332
		c0.178,0.44,0.388,0.864,0.624,1.271l-2.605,2.741l1.339,1.538l3.059-2.049c0.398,0.37,0.826,0.706,1.279,1.007l-1.297,3.41
		l1.827,0.902l2.054-3.104c0.446,0.135,0.907,0.236,1.379,0.307l0.464,3.672h2.036l0.354-3.674c0.479-0.07,0.949-0.177,1.405-0.314
		l2.062,3.115L20,24.623l-1.306-3.434c0.448-0.299,0.872-0.633,1.263-1l3.084,2.064l1.338-1.538l-2.631-2.771
		c0.23-0.397,0.435-0.813,0.61-1.245l3.646,0.336l0.438-1.991l-3.416-1.103C23.056,13.644,23.07,13.34,23.07,13.034z M20.155,13.034
		c0,3.794-3.089,6.88-6.881,6.88s-6.88-3.086-6.88-6.88s3.088-6.88,6.88-6.88S20.155,9.24,20.155,13.034z"/>
</g>
</svg>
