<?xml version="1.0" encoding="utf-8"?>
<!-- Generator: Adobe Illustrator 16.0.0, SVG Export Plug-In . SVG Version: 6.00 Build 0)  -->
<!DOCTYPE svg PUBLIC "-//W3C//DTD SVG 1.1//EN" "http://www.w3.org/Graphics/SVG/1.1/DTD/svg11.dtd">
<svg version="1.1" id="Layer_1" xmlns="http://www.w3.org/2000/svg" xmlns:xlink="http://www.w3.org/1999/xlink" x="0px" y="0px"
	 width="26.593px" height="26.598px" viewBox="0 0 26.593 26.598" enable-background="new 0 0 26.593 26.598" xml:space="preserve">
<g>
	<path fill="#AAD485" d="M25.455,12.796l-5.92-5.919C19.078,6.421,17.88,6.366,17.88,7.48c0,0.78,0,3.122,0,3.122H6.157
		c-0.817,0-1.479,0.662-1.479,1.479v3.362c0,0.815,0.661,1.479,1.479,1.479H17.88c0,0,0,1.933,0,2.904s1.197,0.998,1.654,0.542
		l5.92-5.919C25.912,13.992,25.912,13.252,25.455,12.796z"/>
	<path fill="#AAD485" d="M20.761,21.236v2.301c0,0.238-0.193,0.432-0.432,0.432H3.322c-0.238,0-0.431-0.192-0.431-0.432V3.688
		c0-0.237,0.192-0.433,0.431-0.433H20.33c0.237,0,0.432,0.194,0.432,0.433v2.32l2.097,2.097V3.688c0-1.395-1.134-2.526-2.526-2.526
		H3.322c-1.394,0-2.526,1.133-2.526,2.526v19.85c0,1.396,1.133,2.527,2.526,2.527H20.33c1.395,0,2.527-1.133,2.527-2.527v-4.396
		L20.761,21.236z"/>
</g>
</svg>
