<?xml version="1.0" encoding="utf-8"?>
<!-- Generator: Adobe Illustrator 16.0.0, SVG Export Plug-In . SVG Version: 6.00 Build 0)  -->
<!DOCTYPE svg PUBLIC "-//W3C//DTD SVG 1.1//EN" "http://www.w3.org/Graphics/SVG/1.1/DTD/svg11.dtd">
<svg version="1.1" id="Layer_1" xmlns="http://www.w3.org/2000/svg" xmlns:xlink="http://www.w3.org/1999/xlink" x="0px" y="0px"
	 width="403.766px" height="273.222px" viewBox="0 0 403.766 273.222" enable-background="new 0 0 403.766 273.222"
	 xml:space="preserve">
<path fill="#EFC786" d="M393.973,250.893c0,6.628-5.371,12-12,12H22.835c-6.627,0-12-5.372-12-12V23.912c0-6.627,5.373-12,12-12
	h359.138c6.629,0,12,5.373,12,12V250.893z"/>
<g>
	<g>
		<path fill="#FFFFFF" d="M221.118,223.438c1.159,6,1.924,16,0.245,21h31.298c-1.461-5-0.785-16,0.289-21H221.118z"/>
		<rect x="213.506" y="245.438" fill="#FBFEFF" width="46" height="5"/>
		<rect x="160.506" y="194.438" fill="#FFFFFF" width="153" height="12"/>
		<g>
			<path fill="#FFFFFF" d="M168.452,110.295c-4.44,0-8.074,3.633-8.074,8.074v79.93c0,4.441,3.633,8.074,8.074,8.074h137.255
				c4.441,0,8.074-3.633,8.074-8.074v-79.93c0-4.44-3.633-8.074-8.074-8.074H168.452z M306.514,190.696
				c0,4.441-3.633,8.074-8.074,8.074H175.718c-4.44,0-8.074-3.633-8.074-8.074v-64.722c0-4.44,3.633-8.074,8.074-8.074H298.44
				c4.441,0,8.074,3.633,8.074,8.074V190.696z"/>
		</g>
		<g>
			<path fill="#FFFFFF" d="M313.506,216.182c0,4.007-3.249,7.256-7.256,7.256H167.762c-4.007,0-7.256-3.249-7.256-7.256v-2.488
				c0-4.007,3.249-7.256,7.256-7.256H306.25c4.007,0,7.256,3.249,7.256,7.256V216.182z"/>
		</g>
		<rect x="160.506" y="206.438" fill="#FFFFFF" width="153" height="11"/>
		<path fill="#EFC786" d="M233.276,215.154c0,1.806,1.23,3.267,3.23,3.321v-6.641C234.506,211.889,233.276,213.349,233.276,215.154z
			"/>
		<path fill="#EFC786" d="M236.843,211.824c-0.035,0-0.337,0.009-0.337,0.011v6.641c0,0,0.302,0.01,0.337,0.01
			c1.838,0,3.33-1.492,3.33-3.331S238.681,211.824,236.843,211.824z"/>
		<polygon opacity="0.2" fill="#FFFFFF" points="224.219,117.438 178.864,198.438 228.08,198.438 273.434,117.438 		"/>
		<polygon opacity="0.2" fill="#FFFFFF" points="284.954,117.438 239.6,198.438 257.409,198.438 302.817,117.438 		"/>
	</g>
	<g>
		<path fill="#FFFFFF" d="M147.805,173.499H42.046c-0.978,0-1.77,0.792-1.77,1.77v67.204c0,0.977,0.792,1.769,1.77,1.769h105.759
			c0.977,0,1.769-0.792,1.769-1.769v-67.204C149.574,174.291,148.782,173.499,147.805,173.499z M102.708,241.765H86.79
			c-0.293,0-0.53-0.237-0.53-0.53s0.237-0.531,0.53-0.531h15.918c0.292,0,0.53,0.238,0.53,0.531S103,241.765,102.708,241.765z
			 M145.684,237.538c0,0.967-0.784,1.752-1.752,1.752H45.566c-0.968,0-1.752-0.785-1.752-1.752v-58.75
			c0-0.968,0.784-1.752,1.752-1.752h98.365c0.968,0,1.752,0.784,1.752,1.752V237.538z"/>
		<path fill="#FFFFFF" d="M106.626,244.241c0,1.062-0.792,1.77-1.77,1.77H84.863c-0.977,0-1.77-0.707-1.77-1.77H29.482
			c0,0,1.238,6.014,8.493,6.014c5.131,0,56.973,0,56.973,0s51.842,0,56.973,0c7.255,0,8.493-6.014,8.493-6.014H106.626z"/>
		<polygon opacity="0.2" fill="#FFFFFF" points="93.924,177.438 59.075,239.438 97.26,239.438 132.107,177.438 		"/>
		<path opacity="0.2" fill="#FFFFFF" d="M145.506,178.801c0-0.968-0.607-1.363-1.575-1.363h-2.887l-34.848,62h13.817l25.493-45.763
			V178.801z"/>
	</g>
	<g>
		<path fill="#FFFFFF" d="M323.088,244.014c0,3.279,2.658,5.938,5.938,5.938h27.813c3.278,0,5.937-2.658,5.937-5.938v-0.822h-39.688
			V244.014z"/>
		<path fill="#FFFFFF" d="M362.776,176.514c0-3.279-2.658-5.938-5.937-5.938h-27.813c-3.279,0-5.938,2.658-5.938,5.938v0.822h39.688
			V176.514z"/>
		<path fill="#FFFFFF" d="M323.088,177.336v65.855h39.688v-65.855H323.088z M360.596,239.92c0,0.6-0.492,1.09-1.092,1.09H326.36
			c-0.6,0-1.091-0.49-1.091-1.09v-59.312c0-0.601,0.491-1.092,1.091-1.092h33.145c0.6,0,1.092,0.491,1.092,1.092V239.92z"/>
		<path opacity="0.2" fill="#FFFFFF" d="M356.839,169.487h-27.813c-3.875,0-7.027,3.152-7.027,7.027v67.5
			c0,3.875,3.152,7.027,7.027,7.027h27.813c3.874,0,7.026-3.152,7.026-7.027v-67.5C363.866,172.639,360.713,169.487,356.839,169.487
			z M362.776,177.336v65.855v0.822c0,3.279-2.658,5.938-5.937,5.938h-27.813c-3.279,0-5.938-2.658-5.938-5.938v-0.822v-65.855
			v-0.822c0-3.279,2.658-5.938,5.938-5.938h27.813c3.278,0,5.937,2.658,5.937,5.938V177.336z"/>
		<circle fill="#EFC786" cx="342.932" cy="246.572" r="2.712"/>
		<circle fill="#ECF0F0" cx="342.932" cy="246.572" r="2.328"/>
		
			<rect x="341.733" y="245.481" fill="none" stroke="#EFC786" stroke-width="0.2181" stroke-miterlimit="10" width="2.398" height="2.399"/>
		<path fill="#EFC786" d="M351.655,175.319c0,0.512-0.416,0.928-0.928,0.928h-15.373c-0.512,0-0.926-0.416-0.926-0.928v-0.107
			c0-0.513,0.414-0.928,0.926-0.928h15.373c0.512,0,0.928,0.415,0.928,0.928V175.319z"/>
		<circle fill="#EFC786" cx="342.932" cy="172.375" r="0.926"/>
		<path opacity="0.2" fill="#FFFFFF" d="M330,169.487h27.814c2.572,0,4.826,1.391,6.051,3.461l-0.561,1.306l-32.521,75.698
			l-0.468,1.09H330c-3.875,0-7.027-3.152-7.027-7.027v-67.5C322.973,172.639,326.125,169.487,330,169.487z"/>
	</g>
</g>
<rect x="22.217" y="29.766" fill="none" width="322.644" height="129.546"/>
<text transform="matrix(1 0 0 1 47.2729 55.2456)"><tspan x="0" y="0" fill="#FFFFFF" font-family="'ArialRoundedMTBold'" font-size="35">Access BRIDGE </tspan><tspan x="2.803" y="42" fill="#FFFFFF" font-family="'ArialRoundedMTBold'" font-size="35">from anywhere!</tspan></text>
</svg>
