<?xml version="1.0" encoding="utf-8"?>
<!-- Generator: Adobe Illustrator 16.0.0, SVG Export Plug-In . SVG Version: 6.00 Build 0)  -->
<!DOCTYPE svg PUBLIC "-//W3C//DTD SVG 1.1//EN" "http://www.w3.org/Graphics/SVG/1.1/DTD/svg11.dtd">
<svg version="1.1" id="Layer_1" xmlns="http://www.w3.org/2000/svg" xmlns:xlink="http://www.w3.org/1999/xlink" x="0px" y="0px"
	 width="403.766px" height="250px" viewBox="0 0 403.766 250" enable-background="new 0 0 403.766 250" xml:space="preserve">
<g>
	<path fill="#AAD485" d="M393.713,228.426c0,6.628-5.372,12-12,12H22.574c-6.627,0-12-5.372-12-12V21.332c0-6.627,5.373-12,12-12
		h359.139c6.628,0,12,5.373,12,12V228.426z"/>
	<rect x="31.07" y="60.106" fill="none" width="322.644" height="129.546"/>
	<text transform="matrix(1 0 0 1 108.5317 85.5859)"><tspan x="0" y="0" fill="#FFFFFF" font-family="'ArialRoundedMTBold'" font-size="35">How does </tspan><tspan x="-16.808" y="42" fill="#FFFFFF" font-family="'ArialRoundedMTBold'" font-size="35">Parkinson’s </tspan><tspan x="-57.08" y="84" fill="#FFFFFF" font-family="'ArialRoundedMTBold'" font-size="35">impact your life?</tspan></text>
	<g>
		<g>
			<path fill="#FFFFFF" d="M178.015,186.921c11.917-4.219,24.048-7.693,36.667-8.939c12.477-1.232,25.029,0.097,37.325,2.256
				c2.364,0.416,3.375-3.198,0.996-3.615c-12.691-2.229-25.444-3.48-38.321-2.391c-12.936,1.095-25.479,4.76-37.665,9.074
				C174.754,184.106,175.729,187.73,178.015,186.921L178.015,186.921z"/>
		</g>
	</g>
</g>
<g opacity="0.3">
	<path fill="#FFFFFF" d="M22.726,40.212c1.348-3.467,3.237-6.473,5.663-9.015c2.427-2.543,5.354-4.525,8.783-5.952
		c3.427-1.424,7.261-2.138,11.5-2.138c5.469,0,10.033,0.751,13.693,2.254c3.659,1.502,6.605,3.371,8.842,5.604
		c2.233,2.236,3.832,4.644,4.795,7.223c0.963,2.583,1.445,4.989,1.445,7.223c0,3.699-0.482,6.743-1.445,9.13
		c-0.963,2.389-2.157,4.432-3.582,6.125c-1.426,1.696-3.005,3.14-4.738,4.334s-3.371,2.388-4.912,3.582
		c-1.541,1.196-2.908,2.563-4.102,4.104c-1.195,1.542-1.947,3.466-2.254,5.777v4.392H40.812v-5.201
		c0.231-3.312,0.867-6.085,1.907-8.321c1.04-2.234,2.253-4.141,3.64-5.721c1.386-1.578,2.849-2.947,4.391-4.102
		c1.541-1.157,2.965-2.312,4.277-3.468c1.308-1.155,2.368-2.426,3.177-3.813c0.809-1.387,1.174-3.12,1.099-5.201
		c0-3.543-0.867-6.164-2.601-7.858c-1.734-1.694-4.142-2.542-7.223-2.542c-2.079,0-3.871,0.404-5.373,1.213
		c-1.503,0.809-2.736,1.889-3.698,3.236c-0.964,1.349-1.676,2.929-2.138,4.738c-0.463,1.811-0.694,3.756-0.694,5.837H20.587
		C20.664,47.492,21.377,43.678,22.726,40.212z M57.337,89.789v17.798H39.194V89.789H57.337z"/>
</g>
<g opacity="0.3">
	<path fill="#FFFFFF" d="M330.75,160.246c1.349-3.467,3.237-6.473,5.663-9.016c2.428-2.543,5.354-4.525,8.783-5.951
		c3.427-1.425,7.261-2.139,11.5-2.139c5.469,0,10.033,0.752,13.694,2.254c3.657,1.502,6.604,3.371,8.841,5.605
		c2.233,2.235,3.832,4.643,4.795,7.223c0.963,2.583,1.445,4.988,1.445,7.223c0,3.699-0.482,6.742-1.445,9.13
		c-0.963,2.39-2.157,4.432-3.582,6.126c-1.426,1.695-3.005,3.139-4.738,4.334c-1.733,1.193-3.371,2.388-4.912,3.581
		c-1.541,1.196-2.908,2.563-4.102,4.104c-1.195,1.541-1.947,3.466-2.254,5.777v4.392h-15.601v-5.2
		c0.23-3.312,0.866-6.086,1.906-8.321c1.04-2.233,2.253-4.141,3.641-5.721c1.386-1.577,2.849-2.946,4.391-4.103
		c1.54-1.156,2.965-2.311,4.277-3.467c1.308-1.156,2.368-2.427,3.177-3.814c0.81-1.387,1.174-3.119,1.099-5.2
		c0-3.543-0.867-6.163-2.602-7.858c-1.733-1.693-4.141-2.542-7.223-2.542c-2.079,0-3.871,0.404-5.373,1.214
		c-1.503,0.809-2.736,1.889-3.698,3.235c-0.964,1.349-1.676,2.929-2.138,4.737c-0.463,1.811-0.694,3.757-0.694,5.838h-16.988
		C328.69,167.525,329.403,163.712,330.75,160.246z M365.363,209.822v17.799h-18.144v-17.799H365.363z"/>
</g>
</svg>
