<?xml version="1.0" encoding="utf-8"?>
<!-- Generator: Adobe Illustrator 16.0.0, SVG Export Plug-In . SVG Version: 6.00 Build 0)  -->
<!DOCTYPE svg PUBLIC "-//W3C//DTD SVG 1.1//EN" "http://www.w3.org/Graphics/SVG/1.1/DTD/svg11.dtd">
<svg version="1.1" id="Layer_1" xmlns="http://www.w3.org/2000/svg" xmlns:xlink="http://www.w3.org/1999/xlink" x="0px" y="0px"
	 width="100px" height="100px" viewBox="0 0 100 100" enable-background="new 0 0 100 100" xml:space="preserve">
<g>
	<circle fill="#595A5C" cx="50.45" cy="22.276" r="3.253"/>
	<circle fill="#595A5C" cx="57.023" cy="25.919" r="2.923"/>
	<path fill="#595A5C" d="M65.077,29.797c0,1.353-1.097,2.451-2.451,2.451c-1.351,0-2.45-1.099-2.45-2.451
		c0-1.354,1.101-2.451,2.45-2.451C63.98,27.347,65.077,28.444,65.077,29.797z"/>
	<path fill="#595A5C" d="M66.5,34.57c0,0.961-0.78,1.741-1.738,1.741c-0.963,0-1.743-0.78-1.743-1.741
		c0-0.962,0.78-1.742,1.743-1.742C65.72,32.828,66.5,33.608,66.5,34.57z"/>
	<path fill="#595A5C" d="M66.5,38.918c0,0.963-0.78,1.741-1.738,1.741c-0.963,0-1.743-0.778-1.743-1.741
		c0-0.961,0.78-1.74,1.743-1.74C65.72,37.178,66.5,37.958,66.5,38.918z"/>
	<circle fill="#595A5C" cx="62.004" cy="43.153" r="2.291"/>
	<path fill="#595A5C" d="M60.093,47.286c0,1.643-1.334,2.974-2.974,2.974c-1.644,0-2.977-1.331-2.977-2.974s1.333-2.974,2.977-2.974
		C58.759,44.312,60.093,45.643,60.093,47.286z"/>
	<circle fill="#595A5C" cx="50.45" cy="22.276" r="3.253"/>
	<circle fill="#595A5C" cx="57.023" cy="25.919" r="2.923"/>
	<path fill="#595A5C" d="M65.077,29.797c0,1.353-1.097,2.451-2.451,2.451c-1.351,0-2.45-1.099-2.45-2.451
		c0-1.354,1.101-2.451,2.45-2.451C63.98,27.347,65.077,28.444,65.077,29.797z"/>
	<path fill="#595A5C" d="M66.5,34.57c0,0.961-0.78,1.741-1.738,1.741c-0.963,0-1.743-0.78-1.743-1.741
		c0-0.962,0.78-1.742,1.743-1.742C65.72,32.828,66.5,33.608,66.5,34.57z"/>
	<path fill="#595A5C" d="M66.5,38.918c0,0.963-0.78,1.741-1.738,1.741c-0.963,0-1.743-0.778-1.743-1.741
		c0-0.961,0.78-1.74,1.743-1.74C65.72,37.178,66.5,37.958,66.5,38.918z"/>
	<circle fill="#595A5C" cx="62.004" cy="43.153" r="2.291"/>
	<path fill="#595A5C" d="M60.093,47.286c0,1.643-1.334,2.974-2.974,2.974c-1.644,0-2.977-1.331-2.977-2.974s1.333-2.974,2.977-2.974
		C58.759,44.312,60.093,45.643,60.093,47.286z"/>
	<circle fill="#595A5C" cx="57.023" cy="54.662" r="2.923"/>
	<path fill="#595A5C" d="M65.077,58.538c0,1.354-1.097,2.451-2.451,2.451c-1.351,0-2.45-1.098-2.45-2.451s1.101-2.45,2.45-2.45
		C63.98,56.087,65.077,57.185,65.077,58.538z"/>
	<path fill="#595A5C" d="M66.5,63.31c0,0.963-0.78,1.741-1.738,1.741c-0.963,0-1.743-0.778-1.743-1.741
		c0-0.961,0.78-1.74,1.743-1.74C65.72,61.569,66.5,62.349,66.5,63.31z"/>
	<path fill="#595A5C" d="M66.5,67.66c0,0.962-0.78,1.741-1.738,1.741c-0.963,0-1.743-0.779-1.743-1.741
		c0-0.96,0.78-1.741,1.743-1.741C65.72,65.918,66.5,66.7,66.5,67.66z"/>
	<circle fill="#595A5C" cx="62.004" cy="71.894" r="2.291"/>
	<path fill="#595A5C" d="M60.093,76.028c0,1.642-1.334,2.973-2.974,2.973c-1.644,0-2.977-1.331-2.977-2.973
		c0-1.645,1.333-2.976,2.977-2.976C58.759,73.053,60.093,74.384,60.093,76.028z"/>
	<circle fill="#595A5C" cx="50.727" cy="50.485" r="3.253"/>
	<circle fill="#595A5C" cx="50.727" cy="78.681" r="3.253"/>
	<circle fill="#595A5C" cx="44.156" cy="26.145" r="2.921"/>
	<path fill="#595A5C" d="M36.101,30.024c0,1.353,1.096,2.45,2.45,2.45c1.352,0,2.451-1.098,2.451-2.45
		c0-1.354-1.101-2.451-2.451-2.451C37.196,27.573,36.101,28.67,36.101,30.024z"/>
	<circle fill="#595A5C" cx="36.417" cy="34.795" r="1.741"/>
	<circle fill="#595A5C" cx="36.417" cy="39.145" r="1.741"/>
	<circle fill="#595A5C" cx="39.172" cy="43.379" r="2.291"/>
	<path fill="#595A5C" d="M41.083,47.512c0,1.642,1.333,2.972,2.974,2.972c1.644,0,2.977-1.33,2.977-2.972
		c0-1.644-1.333-2.975-2.977-2.975C42.417,44.538,41.083,45.869,41.083,47.512z"/>
	<circle fill="#595A5C" cx="44.156" cy="54.342" r="2.921"/>
	<path fill="#595A5C" d="M36.101,58.222c0,1.353,1.096,2.449,2.45,2.449c1.352,0,2.451-1.098,2.451-2.449
		c0-1.355-1.101-2.451-2.451-2.451C37.196,55.771,36.101,56.866,36.101,58.222z"/>
	<circle fill="#595A5C" cx="36.417" cy="62.993" r="1.741"/>
	<circle fill="#595A5C" cx="36.417" cy="67.342" r="1.741"/>
	<path fill="#595A5C" d="M36.88,71.575c0,1.267,1.027,2.294,2.292,2.294c1.266,0,2.291-1.027,2.291-2.294
		c0-1.264-1.026-2.291-2.291-2.291C37.908,69.284,36.88,70.312,36.88,71.575z"/>
	<path fill="#595A5C" d="M41.083,75.708c0,1.643,1.333,2.973,2.974,2.973c1.644,0,2.977-1.33,2.977-2.973s-1.333-2.973-2.977-2.973
		C42.417,72.735,41.083,74.067,41.083,75.708z"/>
	<path fill="#595A5C" d="M60.093,18.538c0,1.643-1.334,2.974-2.974,2.974c-1.644,0-2.977-1.331-2.977-2.974
		c0-1.642,1.333-2.973,2.977-2.973C58.759,15.565,60.093,16.896,60.093,18.538z"/>
	<circle fill="#595A5C" cx="39.172" cy="14.087" r="2.291"/>
	<path fill="#595A5C" d="M41.083,18.221c0,1.642,1.333,2.973,2.974,2.973c1.644,0,2.977-1.331,2.977-2.973
		c0-1.643-1.333-2.974-2.977-2.974C42.417,15.247,41.083,16.578,41.083,18.221z"/>
	<circle fill="#595A5C" cx="62.004" cy="87.211" r="2.291"/>
	<path fill="#595A5C" d="M60.093,83.079c0-1.641-1.334-2.975-2.974-2.975c-1.644,0-2.977,1.334-2.977,2.975
		c0,1.645,1.333,2.975,2.977,2.975C58.759,86.053,60.093,84.722,60.093,83.079z"/>
	<path fill="#595A5C" d="M41.083,83.397c0-1.645,1.333-2.974,2.974-2.974c1.644,0,2.977,1.329,2.977,2.974
		c0,1.643-1.333,2.974-2.977,2.974C42.417,86.371,41.083,85.04,41.083,83.397z"/>
	<line fill="none" stroke="#898989" stroke-width="1.1046" stroke-miterlimit="10" x1="42.663" y1="31.5" x2="58.026" y2="31.5"/>
	<line fill="none" stroke="#898989" stroke-width="1.1046" stroke-miterlimit="10" x1="39.172" y1="37.1" x2="61.271" y2="37.1"/>
	
		<line fill="none" stroke="#898989" stroke-width="1.1046" stroke-miterlimit="10" x1="44.328" y1="42.701" x2="57.12" y2="42.701"/>
	<line fill="none" stroke="#898989" stroke-width="1.1046" stroke-miterlimit="10" x1="42.663" y1="60" x2="58.026" y2="60"/>
	
		<line fill="none" stroke="#898989" stroke-width="1.1046" stroke-miterlimit="10" x1="39.172" y1="65.601" x2="61.271" y2="65.601"/>
	
		<line fill="none" stroke="#898989" stroke-width="1.1046" stroke-miterlimit="10" x1="44.328" y1="71.202" x2="57.12" y2="71.202"/>
</g>
</svg>
