<?xml version="1.0" encoding="utf-8"?>
<!-- Generator: Adobe Illustrator 16.0.0, SVG Export Plug-In . SVG Version: 6.00 Build 0)  -->
<!DOCTYPE svg PUBLIC "-//W3C//DTD SVG 1.1//EN" "http://www.w3.org/Graphics/SVG/1.1/DTD/svg11.dtd">
<svg version="1.1" id="Layer_1" xmlns="http://www.w3.org/2000/svg" xmlns:xlink="http://www.w3.org/1999/xlink" x="0px" y="0px"
	 width="383.139px" height="300.496px" viewBox="0 0 383.139 300.496" enable-background="new 0 0 383.139 300.496"
	 xml:space="preserve">
<g>
	<path fill="#1E429B" d="M383.139,288.496c0,6.627-5.372,12-12,12H12c-6.627,0-12-5.373-12-12V12C0,5.373,5.373,0,12,0h359.139
		c6.628,0,12,5.373,12,12V288.496z"/>
	<rect x="12.139" y="261" fill="none" width="327.852" height="45.634"/>
	<text transform="matrix(1 0 0 1 12.1392 270.9961)"><tspan x="0" y="0" fill="#FFFFFF" font-family="'HelveticaNeue-Bold'" font-size="14">Thea Norman</tspan><tspan x="90.214" y="0" fill="#FFFFFF" font-family="'HelveticaNeue'" font-size="14">, director of strategic </tspan><tspan x="0" y="16.8" fill="#FFFFFF" font-family="'HelveticaNeue'" font-size="14">development at Sage Bionetworks</tspan></text>
	<g opacity="0.35">
		<path fill="#FFFFFF" d="M13.208,61.406V41.83c0-3.527,0.38-6.847,1.148-9.964c0.762-3.113,1.939-5.848,3.527-8.201
			c1.587-2.35,3.615-4.231,6.084-5.643c2.467-1.412,5.348-2.117,8.64-2.117v8.818c-2,0-3.645,0.502-4.938,1.5
			c-1.293,1-2.352,2.322-3.173,3.967c-0.824,1.648-1.383,3.5-1.676,5.556c-0.294,2.059-0.44,4.087-0.44,6.084h10.406v19.577H13.208z
			 M45.482,61.406V41.83c0-3.527,0.38-6.847,1.146-9.964c0.763-3.113,1.94-5.848,3.527-8.201c1.587-2.35,3.615-4.231,6.084-5.643
			c2.47-1.412,5.349-2.117,8.643-2.117v8.818c-2.001,0-3.646,0.502-4.938,1.5c-1.295,1-2.354,2.322-3.174,3.967
			c-0.824,1.648-1.384,3.5-1.676,5.556c-0.294,2.059-0.44,4.087-0.44,6.084h10.405v19.577H45.482z"/>
	</g>
	<g opacity="0.35">
		<path fill="#FFFFFF" d="M371.108,242.848v19.577c0,3.526-0.38,6.847-1.147,9.964c-0.763,3.113-1.939,5.848-3.527,8.201
			c-1.587,2.35-3.615,4.231-6.084,5.643c-2.469,1.412-5.348,2.117-8.641,2.117v-8.818c2,0,3.646-0.502,4.939-1.5
			c1.293-1,2.352-2.322,3.173-3.967c0.825-1.648,1.383-3.5,1.676-5.556c0.294-2.059,0.44-4.087,0.44-6.084h-10.406v-19.577H371.108z
			 M338.833,242.848v19.577c0,3.526-0.38,6.847-1.146,9.964c-0.763,3.113-1.939,5.848-3.527,8.201
			c-1.586,2.35-3.615,4.231-6.084,5.643c-2.469,1.412-5.349,2.117-8.643,2.117v-8.818c2,0,3.646-0.502,4.938-1.5
			c1.296-1,2.354-2.322,3.175-3.967c0.823-1.648,1.384-3.5,1.675-5.556c0.296-2.059,0.441-4.087,0.441-6.084h-10.405v-19.577
			H338.833z"/>
	</g>
	<polygon fill="none" points="366.139,245.346 11.139,245.346 11.139,73.993 80.495,73.993 80.495,27.328 366.139,27.328 	"/>
	<text transform="matrix(1 0 0 1 80.4951 42.6162)"><tspan x="0" y="0" fill="#FFFFFF" font-family="'ArialRoundedMTBold'" font-size="21">We want to establish a dia</tspan><tspan x="264.335" y="0" fill="#FFFFFF" font-family="'ArialRoundedMTBold'" font-size="21">-</tspan><tspan x="0" y="25.2" fill="#FFFFFF" font-family="'ArialRoundedMTBold'" font-size="21">logue with the participants. </tspan><tspan x="-69.356" y="50.4" fill="#FFFFFF" font-family="'ArialRoundedMTBold'" font-size="21">As things are being learned by the </tspan><tspan x="-69.356" y="75.6" fill="#FFFFFF" font-family="'ArialRoundedMTBold'" font-size="21">researchers, that information goes </tspan><tspan x="-69.356" y="100.8" fill="#FFFFFF" font-family="'ArialRoundedMTBold'" font-size="21">back to the participants so that </tspan><tspan x="-69.356" y="126" fill="#FFFFFF" font-family="'ArialRoundedMTBold'" font-size="21">they can understand how their </tspan><tspan x="-69.356" y="151.2" fill="#FFFFFF" font-family="'ArialRoundedMTBold'" font-size="21">data are being used, and they&apos;re </tspan><tspan x="-69.356" y="176.399" fill="#FFFFFF" font-family="'ArialRoundedMTBold'" font-size="21">participating in a much more </tspan><tspan x="-69.356" y="201.6" fill="#FFFFFF" font-family="'ArialRoundedMTBold'" font-size="21">active way.</tspan></text>
</g>
</svg>
