<?xml version="1.0" encoding="utf-8"?>
<!-- Generator: Adobe Illustrator 16.0.0, SVG Export Plug-In . SVG Version: 6.00 Build 0)  -->
<!DOCTYPE svg PUBLIC "-//W3C//DTD SVG 1.1//EN" "http://www.w3.org/Graphics/SVG/1.1/DTD/svg11.dtd">
<svg version="1.1" id="Layer_1" xmlns="http://www.w3.org/2000/svg" xmlns:xlink="http://www.w3.org/1999/xlink" x="0px" y="0px"
	 width="383.139px" height="250.982px" viewBox="0 0 383.139 250.982" enable-background="new 0 0 383.139 250.982"
	 xml:space="preserve">
<g>
	<path fill="#FBAB2C" d="M383.139,238.982c0,6.627-5.372,12-12,12H12c-6.627,0-12-5.373-12-12V12C0,5.373,5.373,0,12,0h359.139
		c6.628,0,12,5.373,12,12V238.982z"/>
	<g>
		<g>
			<path fill="#FFFFFF" d="M210.284,211.646c1.158,6,1.924,16,0.244,21h31.297c-1.459-5-0.785-16,0.289-21H210.284z"/>
			<rect x="202.829" y="233.646" fill="#FBFEFF" width="46" height="5"/>
			<rect x="149.829" y="182.646" fill="#FFFFFF" width="153" height="12"/>
			<g>
				<path fill="#FFFFFF" d="M157.617,98.384c-4.44,0-8.074,3.633-8.074,8.074v79.931c0,4.441,3.633,8.074,8.074,8.074h137.255
					c4.441,0,8.074-3.633,8.074-8.074v-79.931c0-4.44-3.633-8.074-8.074-8.074H157.617z M295.678,178.784
					c0,4.441-3.633,8.074-8.074,8.074H164.883c-4.44,0-8.074-3.633-8.074-8.074v-64.722c0-4.44,3.633-8.074,8.074-8.074h122.721
					c4.441,0,8.074,3.633,8.074,8.074V178.784z"/>
			</g>
			<g>
				<path fill="#FFFFFF" d="M302.829,204.391c0,4.007-3.249,7.256-7.256,7.256H157.084c-4.007,0-7.256-3.249-7.256-7.256v-2.488
					c0-4.007,3.249-7.256,7.256-7.256h138.488c4.007,0,7.256,3.249,7.256,7.256V204.391z"/>
			</g>
			<rect x="149.829" y="194.646" fill="#FFFFFF" width="153" height="11"/>
			<path fill="#EFC786" d="M222.599,203.242c0,1.805,1.229,3.267,3.229,3.32v-6.641
				C223.829,199.977,222.599,201.438,222.599,203.242z"/>
			<path fill="#EFC786" d="M226.088,199.912c-0.037,0-0.26,0.01-0.26,0.01v6.641c0,0,0.223,0.01,0.26,0.01
				c1.838,0,3.328-1.49,3.328-3.33C229.417,201.404,227.926,199.912,226.088,199.912z"/>
			<polygon opacity="0.2" fill="#FFFFFF" points="213.383,105.646 168.029,186.646 217.245,186.646 262.6,105.646 			"/>
			<polygon opacity="0.2" fill="#FFFFFF" points="274.12,105.646 228.764,186.646 246.573,186.646 291.981,105.646 			"/>
		</g>
		<g>
			<path fill="#FFFFFF" d="M136.97,161.587H31.211c-0.978,0-1.77,0.792-1.77,1.77v67.204c0,0.977,0.792,1.77,1.77,1.77H136.97
				c0.977,0,1.769-0.793,1.769-1.77v-67.204C138.739,162.379,137.947,161.587,136.97,161.587z M91.873,229.854H75.955
				c-0.293,0-0.53-0.236-0.53-0.53c0-0.293,0.237-0.53,0.53-0.53h15.918c0.292,0,0.53,0.237,0.53,0.53
				C92.403,229.617,92.165,229.854,91.873,229.854z M134.849,225.625c0,0.969-0.784,1.752-1.752,1.752H34.731
				c-0.968,0-1.752-0.783-1.752-1.752v-58.749c0-0.968,0.784-1.752,1.752-1.752h98.365c0.968,0,1.752,0.784,1.752,1.752V225.625z"/>
			<path fill="#FFFFFF" d="M95.791,232.33c0,1.061-0.792,1.769-1.77,1.769H74.028c-0.977,0-1.77-0.708-1.77-1.769H18.647
				c0,0,1.238,6.013,8.493,6.013c5.131,0,56.973,0,56.973,0s51.842,0,56.973,0c7.255,0,8.493-6.013,8.493-6.013H95.791z"/>
			<polygon opacity="0.2" fill="#FFFFFF" points="83.089,165.646 48.24,227.646 86.425,227.646 121.272,165.646 			"/>
			<path opacity="0.2" fill="#FFFFFF" d="M134.829,166.89c0-0.968-0.764-1.243-1.732-1.243h-2.887l-34.848,62h13.817l25.65-45.883
				V166.89z"/>
		</g>
		<g>
			<path fill="#FFFFFF" d="M312.253,232.104c0,3.278,2.659,5.937,5.937,5.937h27.814c3.279,0,5.936-2.658,5.936-5.937v-0.823
				h-39.687V232.104z"/>
			<path fill="#FFFFFF" d="M351.94,164.602c0-3.279-2.656-5.938-5.936-5.938H318.19c-3.277,0-5.937,2.658-5.937,5.938v0.823h39.687
				V164.602z"/>
			<path fill="#FFFFFF" d="M312.253,165.425v65.855h39.687v-65.855H312.253z M349.76,228.009c0,0.601-0.49,1.091-1.09,1.091h-33.146
				c-0.6,0-1.09-0.49-1.09-1.091v-59.313c0-0.6,0.49-1.09,1.09-1.09h33.146c0.6,0,1.09,0.49,1.09,1.09V228.009z"/>
			<path opacity="0.2" fill="#FFFFFF" d="M346.004,157.574H318.19c-3.875,0-7.027,3.152-7.027,7.027v67.502
				c0,3.875,3.152,7.027,7.027,7.027h27.814c3.875,0,7.027-3.152,7.027-7.027v-67.502
				C353.032,160.727,349.879,157.574,346.004,157.574z M351.94,165.425v65.855v0.823c0,3.278-2.656,5.937-5.936,5.937H318.19
				c-3.277,0-5.937-2.658-5.937-5.937v-0.823v-65.855v-0.823c0-3.279,2.659-5.938,5.937-5.938h27.814
				c3.279,0,5.936,2.658,5.936,5.938V165.425z"/>
			<path fill="#EFC786" d="M332.096,237.372c-1.494,0-2.711-1.217-2.711-2.712c0-1.496,1.217-2.712,2.711-2.712
				c1.496,0,2.713,1.216,2.713,2.712C334.809,236.155,333.592,237.372,332.096,237.372z"/>
			<circle fill="#ECF0F0" cx="332.098" cy="234.66" r="2.328"/>
			
				<rect x="330.897" y="233.57" fill="none" stroke="#EFC786" stroke-width="0.2181" stroke-miterlimit="10" width="2.4" height="2.398"/>
			<path fill="#EFC786" d="M340.819,163.407c0,0.512-0.414,0.927-0.926,0.927H324.52c-0.512,0-0.928-0.415-0.928-0.927v-0.108
				c0-0.512,0.416-0.927,0.928-0.927h15.373c0.512,0,0.926,0.415,0.926,0.927V163.407z"/>
			<circle fill="#EFC786" cx="332.097" cy="160.464" r="0.927"/>
			<path opacity="0.2" fill="#FFFFFF" d="M319.165,157.574h27.814c2.574,0,4.828,1.393,6.053,3.461l-0.562,1.307l-32.52,75.698
				l-0.469,1.091h-0.316c-3.873,0-7.025-3.152-7.025-7.027v-67.502C312.139,160.727,315.292,157.574,319.165,157.574z"/>
		</g>
	</g>
	<rect x="11.382" y="17.854" fill="none" width="322.644" height="129.546"/>
	<text transform="matrix(1 0 0 1 36.438 43.334)"><tspan x="0" y="0" fill="#FFFFFF" font-family="'ArialRoundedMTBold'" font-size="35">Access BRIDGE </tspan><tspan x="2.803" y="42" fill="#FFFFFF" font-family="'ArialRoundedMTBold'" font-size="35">from anywhere!</tspan></text>
</g>
</svg>
