<?xml version="1.0" encoding="utf-8"?>
<!-- Generator: Adobe Illustrator 16.0.0, SVG Export Plug-In . SVG Version: 6.00 Build 0)  -->
<!DOCTYPE svg PUBLIC "-//W3C//DTD SVG 1.1//EN" "http://www.w3.org/Graphics/SVG/1.1/DTD/svg11.dtd">
<svg version="1.1" id="Layer_1" xmlns="http://www.w3.org/2000/svg" xmlns:xlink="http://www.w3.org/1999/xlink" x="0px" y="0px"
	 width="42.667px" height="39.819px" viewBox="0 0 42.667 39.819" enable-background="new 0 0 42.667 39.819" xml:space="preserve">
<g>
	<path fill="#FFFFFF" d="M14.948,21.172c0-2.403-3.859-2.437-3.859,0c0,2.942,0,6.02,0,8.034c0,2.215,3.859,2.182,3.859,0
		C14.948,27.225,14.948,23.574,14.948,21.172z"/>
	<path fill="#FFFFFF" d="M32.499,31.475V19.446H15.78v12.029c0,0-0.418,2.303,3.191,2.415c0,1.625,0,3.128,0,4.279
		c0,2.216,3.857,2.183,3.857,0c0-1.083,0-2.667,0-4.273c0.812,0,1.584,0,2.4,0c0,1.623,0,3.123,0,4.273c0,2.216,3.857,2.183,3.857,0
		c0-1.083,0-2.669,0-4.276C32.926,33.834,32.499,31.475,32.499,31.475z"/>
	<path fill="#FFFFFF" d="M37.172,21.172c0-2.403-3.857-2.437-3.857,0c0,2.942,0,6.02,0,8.034c0,2.215,3.857,2.182,3.857,0
		C37.172,27.225,37.172,23.574,37.172,21.172z"/>
	<path fill="#FFFFFF" d="M28.147,11.89l1.346-2.479l-0.266-0.146l-1.355,2.494c-1.01-0.439-2.236-0.712-3.732-0.712
		c-1.574,0-2.848,0.304-3.887,0.784l-1.395-2.566L18.59,9.412l1.387,2.551c-3.889,1.998-4.197,6.575-4.197,6.575h16.719
		C32.499,18.538,32.178,13.845,28.147,11.89z M20.176,15.893c-0.43,0-0.779-0.348-0.779-0.778c0-0.429,0.35-0.778,0.779-0.778
		s0.777,0.349,0.777,0.778C20.954,15.545,20.606,15.893,20.176,15.893z M27.922,15.893c-0.43,0-0.777-0.348-0.777-0.778
		c0-0.429,0.348-0.778,0.777-0.778s0.779,0.349,0.779,0.778C28.702,15.545,28.352,15.893,27.922,15.893z"/>
</g>
</svg>
