<?xml version="1.0" encoding="utf-8"?>
<!-- Generator: Adobe Illustrator 16.0.0, SVG Export Plug-In . SVG Version: 6.00 Build 0)  -->
<!DOCTYPE svg PUBLIC "-//W3C//DTD SVG 1.1//EN" "http://www.w3.org/Graphics/SVG/1.1/DTD/svg11.dtd">
<svg version="1.1" id="Layer_1" xmlns="http://www.w3.org/2000/svg" xmlns:xlink="http://www.w3.org/1999/xlink" x="0px" y="0px"
	 width="37.333px" height="33.835px" viewBox="0 0 37.333 33.835" enable-background="new 0 0 37.333 33.835" xml:space="preserve">
<g>
	<path fill="#FFFFFF" d="M30.063,16.279c0,0-2.229-2.935-4.729-2.772s-4.783,1.386-5.271,1.386c-0.49,0-2.609-1.386-4.186-1.386
		s-6.686,1.033-6.686,8.479c0,7.445,5.49,11.849,6.848,11.849c1.359,0,3.531-1.196,4.457-1.196c0.928,0,3.316,1.196,4.459,1.196
		c3.695,0,5.979-7.284,5.979-7.284S23.487,23.019,30.063,16.279z"/>
	<path fill="#FFFFFF" d="M25.334,7.148c0,6.033-5.271,6.087-5.271,6.087C20.063,7.257,25.334,7.148,25.334,7.148z"/>
</g>
</svg>
