<?xml version="1.0" encoding="utf-8"?>
<!-- Generator: Adobe Illustrator 16.0.0, SVG Export Plug-In . SVG Version: 6.00 Build 0)  -->
<!DOCTYPE svg PUBLIC "-//W3C//DTD SVG 1.1//EN" "http://www.w3.org/Graphics/SVG/1.1/DTD/svg11.dtd">
<svg version="1.1" id="Layer_1" xmlns="http://www.w3.org/2000/svg" xmlns:xlink="http://www.w3.org/1999/xlink" x="0px" y="0px"
	 width="100px" height="100px" viewBox="0 0 100 100" enable-background="new 0 0 100 100" xml:space="preserve">
<g>
	<path fill="#D1D3D4" d="M32.249,49.834c0,0,52.462-29.922,56.32-24.226c3.859,5.697-21.682,23.908-21.682,23.908
		s20.223-16.514,16.088-20.373C78.84,25.284,32.249,49.834,32.249,49.834z"/>
	<path fill="#A6D2AB" d="M32.249,49.834c0,0,7.58-19.837,16.768-21.215c9.187-1.378,17.871,20.897,17.871,20.897
		s-8.178-29.972-18.56-29.696C37.946,20.096,32.249,49.834,32.249,49.834z"/>
	<path fill="#E6E7E8" d="M66.887,49.881c0,0-52.462,29.383-56.322,23.687C6.706,67.871,32.249,50.2,32.249,50.2
		s-19.584,15.971-15.451,19.83C20.932,73.889,66.887,49.881,66.887,49.881z"/>
	<path fill="#E6E7E8" d="M66.887,49.881c0,0-7.355,21.259-16.542,22.638C41.157,73.898,32.249,50.2,32.249,50.2
		s8.178,29.432,18.559,29.157C61.189,79.08,66.887,49.881,66.887,49.881z"/>
	<circle fill="#E6E7E8" cx="49.016" cy="49.881" r="5.449"/>
</g>
</svg>
