<?xml version="1.0" encoding="utf-8"?>
<!-- Generator: Adobe Illustrator 16.0.0, SVG Export Plug-In . SVG Version: 6.00 Build 0)  -->
<!DOCTYPE svg PUBLIC "-//W3C//DTD SVG 1.1//EN" "http://www.w3.org/Graphics/SVG/1.1/DTD/svg11.dtd">
<svg version="1.1" id="Layer_1" xmlns="http://www.w3.org/2000/svg" xmlns:xlink="http://www.w3.org/1999/xlink" x="0px" y="0px"
	 width="100px" height="100px" viewBox="0 0 100 100" enable-background="new 0 0 100 100" xml:space="preserve">
<g>
	<path fill="#A9D384" d="M50.568,28.845c-11.789,0-21.345,9.556-21.345,21.345c0,11.788,9.556,21.344,21.345,21.344
		c11.787,0,21.344-9.556,21.344-21.344C71.912,38.401,62.355,28.845,50.568,28.845z M50.568,68.119
		c-9.903,0-17.93-8.027-17.93-17.93s8.027-17.93,17.93-17.93c9.901,0,17.928,8.027,17.928,17.93S60.47,68.119,50.568,68.119z"/>
	<path fill="#A9D384" d="M35.218,53.48c0,0,2.095-2.002,3.764-4.783c1.834,1.168,6.674,6.73,6.674,6.73
		c1.167-2.393,5.505-8.716,14.903-16.927c0,0,1.559,3.69,3.241,5.414c-3.185,2.169-8.612,6.63-17.755,20.203
		C41.373,58.43,35.218,53.48,35.218,53.48z"/>
</g>
</svg>
