<?xml version="1.0" encoding="utf-8"?>
<!-- Generator: Adobe Illustrator 16.0.0, SVG Export Plug-In . SVG Version: 6.00 Build 0)  -->
<!DOCTYPE svg PUBLIC "-//W3C//DTD SVG 1.1//EN" "http://www.w3.org/Graphics/SVG/1.1/DTD/svg11.dtd">
<svg version="1.1" id="Layer_1" xmlns="http://www.w3.org/2000/svg" xmlns:xlink="http://www.w3.org/1999/xlink" x="0px" y="0px"
	 width="100px" height="100px" viewBox="0 0 100 100" enable-background="new 0 0 100 100" xml:space="preserve">
<g>
	<path fill="#81D3F0" d="M49.86,16.596c17.18,0,31.107,13.928,31.107,31.109c0,17.181-13.929,31.109-31.107,31.109
		c-17.182,0-31.109-13.929-31.109-31.109C18.751,30.523,32.679,16.596,49.86,16.596z"/>
	<g>
		<path fill="#ECF0F0" d="M62.983,63.746l-9.236-22.374v-4.36h-7.775v4.372l-9.235,22.362c-0.283,0.77,0.651,1.458,1.459,1.458
			h23.33C62.331,65.204,63.267,64.484,62.983,63.746z"/>
		<path fill="#ECF0F0" d="M46.065,36.51c-0.002,0.006-0.002,0.012-0.004,0.016h7.596c-0.002-0.004-0.002-0.01-0.004-0.016
			c0.602-0.074,1.066-0.58,1.066-1.199c0-0.672-0.543-1.216-1.215-1.216h-7.291c-0.672,0-1.215,0.544-1.215,1.216
			C44.999,35.93,45.464,36.436,46.065,36.51z"/>
	</g>
	<path fill="#AAD485" d="M55.347,49.197c2.426,5.992,5.692,13.576,5.692,13.576c0.283,0.709-0.168,0.973-0.973,0.973H39.65
		c-0.806,0-1.205-0.223-0.974-0.973c0,0,3.103-7.662,5.504-13.6C47.286,46.475,50.216,50.167,55.347,49.197z"/>
	<path opacity="0.4" fill="#FFFFFF" enable-background="new    " d="M48.644,54.51c-1.477,0-2.672,1.197-2.672,2.674
		c0,1.478,1.195,2.674,2.672,2.674s2.674-1.196,2.674-2.674C51.317,55.707,50.12,54.51,48.644,54.51z M53.747,52.809
		c0-0.67-0.543-1.215-1.215-1.215c-0.67,0-1.215,0.545-1.215,1.215c0,0.672,0.545,1.215,1.215,1.215
		C53.204,54.023,53.747,53.48,53.747,52.809z M55.206,57.427c-1.074,0-1.943,0.87-1.943,1.944s0.869,1.943,1.943,1.943
		s1.945-0.869,1.945-1.943S56.28,57.427,55.206,57.427z"/>
	<path fill="#FFFFFF" d="M51.075,30.206c-0.672,0-1.217,0.544-1.217,1.216c0,0.671,0.545,1.215,1.217,1.215
		c0.67,0,1.215-0.544,1.215-1.215C52.29,30.75,51.745,30.206,51.075,30.206z M47.673,26.805c-0.94,0-1.701,0.762-1.701,1.7
		c0,0.94,0.761,1.701,1.701,1.701c0.939,0,1.701-0.761,1.701-1.701S48.612,26.805,47.673,26.805z"/>
</g>
</svg>
