<?xml version="1.0" encoding="utf-8"?>
<!-- Generator: Adobe Illustrator 16.0.0, SVG Export Plug-In . SVG Version: 6.00 Build 0)  -->
<!DOCTYPE svg PUBLIC "-//W3C//DTD SVG 1.1//EN" "http://www.w3.org/Graphics/SVG/1.1/DTD/svg11.dtd">
<svg version="1.1" id="Layer_1" xmlns="http://www.w3.org/2000/svg" xmlns:xlink="http://www.w3.org/1999/xlink" x="0px" y="0px"
	 width="100px" height="100px" viewBox="0 0 100 100" enable-background="new 0 0 100 100" xml:space="preserve">
<g>
	<path fill="#81D3F0" d="M50,19.753c17.183,0,31.108,13.928,31.108,31.109S67.183,81.97,50,81.97
		c-17.182,0-31.109-13.926-31.109-31.107S32.818,19.753,50,19.753z"/>
	<g>
		<g>
			<defs>
				<circle id="SVGID_1_" cx="50" cy="50.862" r="31.109"/>
			</defs>
			<clipPath id="SVGID_2_">
				<use xlink:href="#SVGID_1_"  overflow="visible"/>
			</clipPath>
			<g clip-path="url(#SVGID_2_)">
				<path fill="#EBEEEE" d="M37.848,34.821h24.305c2.146,0,3.889,1.741,3.889,3.889v53.469c0,2.146-1.742,3.89-3.889,3.89H37.848
					c-2.146,0-3.889-1.742-3.889-3.89V38.71C33.959,36.562,35.701,34.821,37.848,34.821z"/>
				<path fill="#FFFFFF" d="M38.334,35.794h23.332c1.879,0,3.401,1.523,3.401,3.402v52.496c0,1.879-1.522,3.402-3.401,3.402H38.334
					c-1.879,0-3.402-1.523-3.402-3.402V39.196C34.932,37.317,36.455,35.794,38.334,35.794z"/>
				<path fill="#AAD485" d="M36.877,44.542h26.248v41.805H36.877V44.542z"/>
				<path fill="#939598" d="M53.16,40.654h-6.318c-0.404,0-0.73,0.327-0.73,0.729c0,0.401,0.326,0.729,0.73,0.729h6.318
					c0.401,0,0.729-0.326,0.729-0.729C53.89,40.98,53.562,40.654,53.16,40.654z M50,88.29c-1.342,0-2.43,1.088-2.43,2.43
					c0,1.344,1.088,2.433,2.43,2.433s2.433-1.089,2.433-2.433C52.433,89.378,51.342,88.29,50,88.29z"/>
				<path fill="#939598" d="M50.244,37.737c0.401,0,0.729,0.326,0.729,0.729c0,0.403-0.326,0.729-0.729,0.729
					c-0.404,0-0.729-0.326-0.729-0.729C49.515,38.063,49.84,37.737,50.244,37.737z"/>
			</g>
		</g>
	</g>
</g>
</svg>
