<?xml version="1.0" encoding="utf-8"?>
<!-- Generator: Adobe Illustrator 16.0.0, SVG Export Plug-In . SVG Version: 6.00 Build 0)  -->
<!DOCTYPE svg PUBLIC "-//W3C//DTD SVG 1.1//EN" "http://www.w3.org/Graphics/SVG/1.1/DTD/svg11.dtd">
<svg version="1.1" id="Layer_1" xmlns="http://www.w3.org/2000/svg" xmlns:xlink="http://www.w3.org/1999/xlink" x="0px" y="0px"
	 width="100px" height="100px" viewBox="0 0 100 100" enable-background="new 0 0 100 100" xml:space="preserve">
<g>
	<path fill="#81D3F0" d="M50.235,16.999c17.182,0,31.109,13.929,31.109,31.108S67.417,79.217,50.235,79.217
		S19.126,65.289,19.126,48.107C19.126,30.928,33.054,16.999,50.235,16.999z"/>
	<path fill="#FFFFFF" stroke="#FFFFFF" stroke-width="0.25" stroke-miterlimit="10" d="M30.601,34.975h20.748
		c0.979,0,1.773,0.793,1.773,1.772v12.499c0,0.98-0.796,1.773-1.773,1.773H39.7c-0.008-0.004-4.502,2.979-4.576,2.955
		c-0.004-0.004-0.016-2.955,0.002-2.955h-4.524c-0.979,0-1.773-0.795-1.773-1.773V36.747C28.827,35.77,29.62,34.975,30.601,34.975z"
		/>
	<path fill="#AAD485" d="M70.38,41.76H44.433c-1.146,0-2.07,0.928-2.07,2.07v16.838c0,1.146,0.928,2.07,2.07,2.07h5.818
		c0.01-0.004,5.096,3.48,5.182,3.451c0.004-0.006,0.02-3.451,0-3.451H70.38c1.143,0,2.067-0.926,2.067-2.07V43.831
		C72.448,42.688,71.522,41.76,70.38,41.76z"/>
</g>
</svg>
