<?xml version="1.0" encoding="utf-8"?>
<!-- Generator: Adobe Illustrator 16.0.0, SVG Export Plug-In . SVG Version: 6.00 Build 0)  -->
<!DOCTYPE svg PUBLIC "-//W3C//DTD SVG 1.1//EN" "http://www.w3.org/Graphics/SVG/1.1/DTD/svg11.dtd">
<svg version="1.1" id="Layer_1" xmlns="http://www.w3.org/2000/svg" xmlns:xlink="http://www.w3.org/1999/xlink" x="0px" y="0px"
	 width="100px" height="100px" viewBox="0 0 100 100" enable-background="new 0 0 100 100" xml:space="preserve">
<g>
	<path id="background_17_" fill="#81D3F0" d="M81.174,50.059c0.144,17.181-13.67,31.224-30.85,31.367
		c-17.18,0.143-31.225-13.67-31.367-30.851c-0.139-16.812,13.351-31.221,30.851-31.366C66.987,19.066,81.032,32.879,81.174,50.059z"
		/>
	<path fill="#FFFFFF" d="M63.971,41.991c-0.014-1.511-1.334-2.812-2.846-2.798c-7.91,0.066-15.82-0.066-23.729,0
		c-1.513,0.013-2.646,1.531-2.632,3.043c0.066,7.91-0.065,15.82,0,23.73c0.013,1.512,1.363,2.84,2.875,2.828
		c7.91-0.064,15.841,0.064,23.818,0c1.021-0.011,1.729-0.722,2.133-1.437c0.359-0.438,0.39-1.021,0.381-1.748
		C63.909,57.861,64.039,49.902,63.971,41.991z M58.297,62.924c-6.023,0.049-11.871-0.049-17.857,0
		c-0.049-6.002,0.049-12.006,0-18.008c6.002-0.051,11.855,0.051,17.857,0C58.346,50.946,58.248,56.986,58.297,62.924z"/>
	<path fill="none" d="M42.358,54.162c0.012-0.01,0.022-0.02,0.035-0.029c-0.021,0-0.041,0-0.062,0.002
		C42.34,54.133,42.351,54.17,42.358,54.162z"/>
	<path fill="#A6D2AB" stroke="#FFFFFF" stroke-width="3" stroke-miterlimit="10" d="M73.463,33.729
		c-1.136-1.115-2.789-0.966-3.922,0.032c-5.529,4.881-11.062,9.733-16.591,14.6c-1.463,1.285-2.926,2.572-4.389,3.861
		c-1.951-2.217-3.902-4.586-5.854-6.857c-0.986-1.148-2.928-0.951-3.92,0.059c-1.127,1.146-0.951,2.801,0.031,3.947
		c2.516,2.93,5.031,5.858,7.547,8.787c1.033,1.205,2.863,0.9,3.92-0.031c2.213-1.951,4.426-3.904,6.639-5.856
		c5.515-4.865,11.029-9.73,16.543-14.597c0.011-0.008,0.019-0.016,0.027-0.022C74.629,36.65,74.481,34.732,73.463,33.729z
		 M46.358,54.162c-0.008,0.008-0.019-0.027-0.024-0.027c0.02-0.002,0.039-0.002,0.061-0.002
		C46.381,54.143,46.37,54.152,46.358,54.162z"/>
	<path fill="#AAD485" d="M73.463,33.729c-1.136-1.115-2.789-0.966-3.922,0.032c-5.529,4.881-11.062,9.733-16.591,14.6
		c-1.463,1.285-2.926,2.572-4.389,3.861c-1.951-2.217-3.902-4.586-5.854-6.857c-0.986-1.148-2.928-0.951-3.92,0.059
		c-1.127,1.146-0.951,2.801,0.031,3.947c2.516,2.93,5.031,5.858,7.547,8.787c1.033,1.205,2.863,0.9,3.92-0.031
		c2.213-1.951,4.426-3.904,6.639-5.856c5.515-4.865,11.029-9.73,16.543-14.597c0.011-0.008,0.019-0.016,0.027-0.022
		C74.629,36.65,74.481,34.732,73.463,33.729z M46.358,54.162c-0.008,0.008-0.019-0.027-0.024-0.027
		c0.02-0.002,0.039-0.002,0.061-0.002C46.381,54.143,46.37,54.152,46.358,54.162z"/>
</g>
</svg>
