<?xml version="1.0" encoding="utf-8"?>
<!-- Generator: Adobe Illustrator 16.0.0, SVG Export Plug-In . SVG Version: 6.00 Build 0)  -->
<!DOCTYPE svg PUBLIC "-//W3C//DTD SVG 1.1//EN" "http://www.w3.org/Graphics/SVG/1.1/DTD/svg11.dtd">
<svg version="1.1" id="Layer_1" xmlns="http://www.w3.org/2000/svg" xmlns:xlink="http://www.w3.org/1999/xlink" x="0px" y="0px"
	 width="100px" height="100px" viewBox="0 0 100 100" enable-background="new 0 0 100 100" xml:space="preserve">
<g>
	<path fill="#AAD485" d="M50.106,18.139c17.183,0,31.109,13.928,31.109,31.108c0,17.183-13.928,31.108-31.109,31.108
		c-17.18,0-31.108-13.928-31.108-31.108C18.997,32.066,32.927,18.139,50.106,18.139z"/>
	<g>
		<g>
			<defs>
				<circle id="SVGID_1_" cx="50.106" cy="49.247" r="31.108"/>
			</defs>
			<clipPath id="SVGID_2_">
				<use xlink:href="#SVGID_1_"  overflow="visible"/>
			</clipPath>
			<polygon clip-path="url(#SVGID_2_)" fill="#81D3F0" points="17.054,70.635 37.47,45.845 57.884,60.427 76.354,34.18 
				85.591,18.139 17.054,18.139 			"/>
		</g>
	</g>
	<path fill="#ECF0F0" d="M58.597,61.023l19.211-27.097l-2.166-1.207L57.032,58.967L38.877,46.273l-0.193,0.151l0.216-0.282
		l-1.688-1.683L23.373,62.632l1.688,1.683l12.392-16.271l20.543,14.646L58.597,61.023L58.597,61.023z"/>
	<path fill="#FFFFFF" d="M24.345,57.51c-2.953,0-5.348,2.395-5.348,5.348s2.395,5.348,5.348,5.348s5.348-2.395,5.348-5.348
		S27.298,57.51,24.345,57.51z M37.954,41.47c-2.953,0-5.346,2.394-5.346,5.347s2.393,5.349,5.346,5.349s5.348-2.396,5.348-5.349
		S40.907,41.47,37.954,41.47z M57.397,54.107c-2.953,0-5.346,2.395-5.346,5.348s2.393,5.346,5.346,5.346s5.348-2.393,5.348-5.346
		S60.351,54.107,57.397,54.107z M75.868,28.832c-2.953,0-5.346,2.395-5.346,5.348c0,2.952,2.393,5.346,5.346,5.346
		s5.348-2.394,5.348-5.346C81.216,31.227,78.821,28.832,75.868,28.832z"/>
</g>
</svg>
