<?xml version="1.0" encoding="utf-8"?>
<!-- Generator: Adobe Illustrator 16.0.0, SVG Export Plug-In . SVG Version: 6.00 Build 0)  -->
<!DOCTYPE svg PUBLIC "-//W3C//DTD SVG 1.1//EN" "http://www.w3.org/Graphics/SVG/1.1/DTD/svg11.dtd">
<svg version="1.1" id="Layer_1" xmlns="http://www.w3.org/2000/svg" xmlns:xlink="http://www.w3.org/1999/xlink" x="0px" y="0px"
	 width="100px" height="100px" viewBox="0 0 100 100" enable-background="new 0 0 100 100" xml:space="preserve">
<g>
	<path fill="none" stroke="#58595B" stroke-width="1.9851" stroke-miterlimit="10" d="M57.384,24.075
		c0,4.316-3.501,7.816-7.817,7.816c-4.32,0-7.816-3.5-7.816-7.816c0-4.316,3.496-7.818,7.816-7.818
		C53.883,16.256,57.384,19.758,57.384,24.075z"/>
	<path fill="none" stroke="#58595B" stroke-width="1.9851" stroke-miterlimit="10" d="M46.257,34.028c6.251,0,2.858,0,8.685,0
		c5.828,0,6.562,6.973,6.562,6.973s0,8.961,0,12.599c0,3.637-3.598,7.086-3.598,7.086v23.06h-4.838l-2.363-15.072h-1.139
		L47.33,83.744h-4.631V60.686c0,0-4.203-2.908-4.203-7.086c0-4.179,0-12.599,0-12.599S40.002,34.028,46.257,34.028z"/>
	<circle fill="none" stroke="#58595B" stroke-width="1.9851" stroke-miterlimit="10" cx="28.58" cy="25.658" r="7.233"/>
	<path fill="none" stroke="#58595B" stroke-width="1.9851" stroke-miterlimit="10" d="M25.518,34.871c5.787,0,4.182,0,9.573,0
		c2.03,0-1.672,1.294-1.672,13.712c0,12.423,2.88,12.423,2.88,12.423v19.867H31.82l-2.185-13.945H28.58l-2.065,13.945h-4.29V59.537
		c0,0-3.887-2.691-3.887-6.557c0-3.87,0-11.659,0-11.659S19.736,34.871,25.518,34.871z"/>
	<path fill="none" stroke="#58595B" stroke-width="1.9851" stroke-miterlimit="10" d="M74.482,34.871c-5.787,0-4.182,0-9.572,0
		c-2.031,0,1.672,1.294,1.672,13.712c0,12.423-2.881,12.423-2.881,12.423v19.867h4.479l2.184-13.945h1.058l2.07,13.945h4.284V59.537
		c0,0,3.888-2.691,3.888-6.557c0-3.87,0-11.659,0-11.659S80.266,34.871,74.482,34.871z"/>
	<path fill="none" stroke="#58595B" stroke-width="1.9851" stroke-miterlimit="10" d="M77.542,25.659
		c0,3.994-3.239,7.232-7.235,7.232c-3.992,0-7.231-3.238-7.231-7.232c0-3.994,3.239-7.233,7.231-7.233
		C74.303,18.425,77.542,21.665,77.542,25.659z"/>
</g>
</svg>
