<?xml version="1.0" encoding="utf-8"?>
<!-- Generator: Adobe Illustrator 16.0.0, SVG Export Plug-In . SVG Version: 6.00 Build 0)  -->
<!DOCTYPE svg PUBLIC "-//W3C//DTD SVG 1.1//EN" "http://www.w3.org/Graphics/SVG/1.1/DTD/svg11.dtd">
<svg version="1.1" id="Layer_1" xmlns="http://www.w3.org/2000/svg" xmlns:xlink="http://www.w3.org/1999/xlink" x="0px" y="0px"
	 width="100px" height="100px" viewBox="0 0 100 100" enable-background="new 0 0 100 100" xml:space="preserve">
<g>
	<path fill="#FFFFFF" d="M29.982,23.316c0,2.251-1.82,4.075-4.074,4.075c-2.242,0-4.076-1.824-4.076-4.075
		c0-2.248,1.834-4.071,4.076-4.071C28.162,19.246,29.982,21.069,29.982,23.316z"/>
	<path fill="#FFFFFF" d="M48.918,23.316c0,2.251-1.818,4.075-4.072,4.075c-2.249,0-4.075-1.824-4.075-4.075
		c0-2.248,1.826-4.071,4.075-4.071C47.1,19.246,48.918,21.069,48.918,23.316z"/>
	<path fill="#FFFFFF" d="M68.862,47.439c-5.384,0-9.749,4.36-9.749,9.741c0,5.384,4.365,9.742,9.749,9.742
		c5.381,0,9.745-4.358,9.745-9.742C78.607,51.8,74.243,47.439,68.862,47.439z M68.862,62.396c-2.883,0-5.212-2.333-5.212-5.216
		c0-2.88,2.329-5.212,5.212-5.212c2.878,0,5.216,2.332,5.216,5.212C74.078,60.063,71.74,62.396,68.862,62.396z"/>
	<path fill="#FFFFFF" d="M71.161,57.181c0,1.266-1.033,2.296-2.299,2.296c-1.264,0-2.296-1.03-2.296-2.296s1.032-2.291,2.296-2.291
		C70.128,54.89,71.161,55.915,71.161,57.181z"/>
	<path fill="#FFFFFF" d="M23.125,21.337c0,0-6.649,2.862-6.649,6.055c0,20.475,14.58,30.712,14.58,30.712
		c-0.335,2.861,2.532,5.641,2.532,5.641s0.648,17.011,18.705,17.011c18.061,0,18.869-14.614,18.869-14.614h-4.595
		c0,0,0.06,10.348-14.381,10.348c-14.438,0-14.416-13.409-14.416-13.409c1.762-0.789,3.001-5.196,3.001-5.196
		s13.487-8.912,13.487-30.491c0-3.963-6.713-6.055-6.713-6.055l-0.863,4.513c0,0,3.306,0.566,3.306,2.2
		c0,6.293-6.323,26.432-13.952,26.432c-7.631,0-14.782-17.293-14.782-26.32c0-1.761,4.164-2.202,4.164-2.202L23.125,21.337z"/>
</g>
</svg>
