<?xml version="1.0" encoding="utf-8"?>
<!-- Generator: Adobe Illustrator 16.0.0, SVG Export Plug-In . SVG Version: 6.00 Build 0)  -->
<!DOCTYPE svg PUBLIC "-//W3C//DTD SVG 1.1//EN" "http://www.w3.org/Graphics/SVG/1.1/DTD/svg11.dtd">
<svg version="1.1" id="Layer_1" xmlns="http://www.w3.org/2000/svg" xmlns:xlink="http://www.w3.org/1999/xlink" x="0px" y="0px"
	 width="100px" height="100px" viewBox="0 0 100 100" enable-background="new 0 0 100 100" xml:space="preserve">
<g>
	<path fill="#FFFFFF" d="M56.682,72.968c0-0.604-1.927-14.817-10.397-14.817c-8.473,0-3.538,0-12.626,0
		c-9.095,0-10.43,14.214-10.43,14.817H56.682z"/>
	<path fill="#FFFFFF" d="M52.544,29.82h22.32c1.053,0,1.908,0.852,1.908,1.908v13.446c0,1.056-0.855,1.908-1.908,1.908H62.335
		c-0.009-0.003-4.846,3.206-4.924,3.178c-0.006-0.003-0.018-3.178,0-3.178h-4.867c-1.055,0-1.908-0.855-1.908-1.908V31.728
		C50.636,30.675,51.489,29.82,52.544,29.82z"/>
	<path fill="#FFFFFF" d="M48.973,45.99v-5.208c-2.006-3.219-5.576-5.364-9.65-5.364c-6.276,0-11.368,5.092-11.368,11.367
		c0,6.278,5.092,11.365,11.368,11.365c5.911,0,10.765-4.51,11.313-10.277C49.7,47.753,48.973,46.959,48.973,45.99z"/>
</g>
</svg>
