<?xml version="1.0" encoding="utf-8"?>
<!-- Generator: Adobe Illustrator 16.0.0, SVG Export Plug-In . SVG Version: 6.00 Build 0)  -->
<!DOCTYPE svg PUBLIC "-//W3C//DTD SVG 1.1//EN" "http://www.w3.org/Graphics/SVG/1.1/DTD/svg11.dtd">
<svg version="1.1" id="Layer_1" xmlns="http://www.w3.org/2000/svg" xmlns:xlink="http://www.w3.org/1999/xlink" x="0px" y="0px"
	 width="100px" height="100px" viewBox="0 0 100 100" enable-background="new 0 0 100 100" xml:space="preserve">
<g>
	<circle fill="#FFFFFF" cx="-105.778" cy="162.075" r="3.253"/>
	<circle fill="#FFFFFF" cx="-99.205" cy="165.718" r="2.923"/>
	<path fill="#FFFFFF" d="M-91.151,169.596c0,1.354-1.097,2.451-2.451,2.451c-1.351,0-2.45-1.1-2.45-2.451
		c0-1.354,1.101-2.449,2.45-2.449C-92.248,167.146-91.151,168.242-91.151,169.596z"/>
	<path fill="#FFFFFF" d="M-89.728,174.369c0,0.961-0.78,1.74-1.738,1.74c-0.963,0-1.743-0.779-1.743-1.74
		c0-0.963,0.78-1.742,1.743-1.742C-90.508,172.627-89.728,173.406-89.728,174.369z"/>
	<path fill="#FFFFFF" d="M-89.728,178.717c0,0.963-0.78,1.742-1.738,1.742c-0.963,0-1.743-0.779-1.743-1.742
		c0-0.961,0.78-1.74,1.743-1.74C-90.508,176.977-89.728,177.758-89.728,178.717z"/>
	<circle fill="#FFFFFF" cx="-94.224" cy="182.951" r="2.291"/>
	<path fill="#FFFFFF" d="M-96.135,187.086c0,1.643-1.334,2.973-2.974,2.973c-1.644,0-2.977-1.33-2.977-2.973
		c0-1.645,1.333-2.975,2.977-2.975C-97.469,184.111-96.135,185.443-96.135,187.086z"/>
	<circle fill="#FFFFFF" cx="-105.778" cy="162.075" r="3.253"/>
	<circle fill="#FFFFFF" cx="-99.205" cy="165.718" r="2.923"/>
	<path fill="#FFFFFF" d="M-91.151,169.596c0,1.354-1.097,2.451-2.451,2.451c-1.351,0-2.45-1.1-2.45-2.451
		c0-1.354,1.101-2.449,2.45-2.449C-92.248,167.146-91.151,168.242-91.151,169.596z"/>
	<path fill="#FFFFFF" d="M-89.728,174.369c0,0.961-0.78,1.74-1.738,1.74c-0.963,0-1.743-0.779-1.743-1.74
		c0-0.963,0.78-1.742,1.743-1.742C-90.508,172.627-89.728,173.406-89.728,174.369z"/>
	<path fill="#FFFFFF" d="M-89.728,178.717c0,0.963-0.78,1.742-1.738,1.742c-0.963,0-1.743-0.779-1.743-1.742
		c0-0.961,0.78-1.74,1.743-1.74C-90.508,176.977-89.728,177.758-89.728,178.717z"/>
	<circle fill="#FFFFFF" cx="-94.224" cy="182.951" r="2.291"/>
	<path fill="#FFFFFF" d="M-96.135,187.086c0,1.643-1.334,2.973-2.974,2.973c-1.644,0-2.977-1.33-2.977-2.973
		c0-1.645,1.333-2.975,2.977-2.975C-97.469,184.111-96.135,185.443-96.135,187.086z"/>
	<circle fill="#FFFFFF" cx="-99.205" cy="194.463" r="2.923"/>
	<path fill="#FFFFFF" d="M-91.151,198.339c0,1.354-1.097,2.451-2.451,2.451c-1.351,0-2.45-1.099-2.45-2.451s1.101-2.451,2.45-2.451
		C-92.248,195.887-91.151,196.984-91.151,198.339z"/>
	<path fill="#FFFFFF" d="M-89.728,203.109c0,0.963-0.78,1.74-1.738,1.74c-0.963,0-1.743-0.777-1.743-1.74
		c0-0.961,0.78-1.74,1.743-1.74C-90.508,201.369-89.728,202.148-89.728,203.109z"/>
	<path fill="#FFFFFF" d="M-89.728,207.46c0,0.963-0.78,1.741-1.738,1.741c-0.963,0-1.743-0.778-1.743-1.741
		c0-0.959,0.78-1.74,1.743-1.74C-90.508,205.717-89.728,206.501-89.728,207.46z"/>
	<circle fill="#FFFFFF" cx="-94.224" cy="211.693" r="2.291"/>
	<path fill="#FFFFFF" d="M-96.135,215.828c0,1.642-1.334,2.974-2.974,2.974c-1.644,0-2.977-1.332-2.977-2.974
		c0-1.645,1.333-2.977,2.977-2.977C-97.469,212.852-96.135,214.184-96.135,215.828z"/>
	<circle fill="#FFFFFF" cx="-105.501" cy="190.284" r="3.253"/>
	<circle fill="#FFFFFF" cx="-105.501" cy="218.48" r="3.254"/>
	<circle fill="#FFFFFF" cx="-112.072" cy="165.944" r="2.921"/>
	<path fill="#FFFFFF" d="M-120.127,169.822c0,1.354,1.096,2.451,2.45,2.451c1.352,0,2.451-1.099,2.451-2.451
		c0-1.354-1.101-2.449-2.451-2.449C-119.032,167.373-120.127,168.469-120.127,169.822z"/>
	<circle fill="#FFFFFF" cx="-119.811" cy="174.595" r="1.741"/>
	<circle fill="#FFFFFF" cx="-119.811" cy="178.944" r="1.741"/>
	<circle fill="#FFFFFF" cx="-117.056" cy="183.178" r="2.291"/>
	<path fill="#FFFFFF" d="M-115.145,187.312c0,1.641,1.333,2.971,2.974,2.971c1.644,0,2.977-1.33,2.977-2.971
		c0-1.645-1.333-2.977-2.977-2.977C-113.811,184.338-115.145,185.668-115.145,187.312z"/>
	<circle fill="#FFFFFF" cx="-112.072" cy="194.142" r="2.921"/>
	<path fill="#FFFFFF" d="M-120.127,198.021c0,1.353,1.096,2.449,2.45,2.449c1.352,0,2.451-1.098,2.451-2.449
		c0-1.354-1.101-2.451-2.451-2.451C-119.032,195.57-120.127,196.667-120.127,198.021z"/>
	<circle fill="#FFFFFF" cx="-119.811" cy="202.792" r="1.741"/>
	<circle fill="#FFFFFF" cx="-119.811" cy="207.142" r="1.741"/>
	<path fill="#FFFFFF" d="M-119.348,211.376c0,1.266,1.027,2.293,2.292,2.293c1.266,0,2.291-1.027,2.291-2.293
		c0-1.265-1.026-2.291-2.291-2.291C-118.32,209.085-119.348,210.111-119.348,211.376z"/>
	<path fill="#FFFFFF" d="M-115.145,215.508c0,1.643,1.333,2.973,2.974,2.973c1.644,0,2.977-1.33,2.977-2.973
		s-1.333-2.973-2.977-2.973C-113.811,212.535-115.145,213.867-115.145,215.508z"/>
	<path fill="#FFFFFF" d="M-96.135,158.338c0,1.643-1.334,2.975-2.974,2.975c-1.644,0-2.977-1.332-2.977-2.975
		s1.333-2.975,2.977-2.975C-97.469,155.363-96.135,156.695-96.135,158.338z"/>
	<circle fill="#FFFFFF" cx="-117.056" cy="153.887" r="2.291"/>
	<path fill="#FFFFFF" d="M-115.145,158.021c0,1.641,1.333,2.973,2.974,2.973c1.644,0,2.977-1.332,2.977-2.973
		c0-1.645-1.333-2.975-2.977-2.975C-113.811,155.047-115.145,156.377-115.145,158.021z"/>
	<circle fill="#FFFFFF" cx="-94.224" cy="227.01" r="2.291"/>
	<path fill="#FFFFFF" d="M-96.135,222.88c0-1.642-1.334-2.976-2.974-2.976c-1.644,0-2.977,1.334-2.977,2.976
		c0,1.646,1.333,2.976,2.977,2.976C-97.469,225.852-96.135,224.521-96.135,222.88z"/>
	<path fill="#FFFFFF" d="M-115.145,223.197c0-1.645,1.333-2.975,2.974-2.975c1.644,0,2.977,1.33,2.977,2.975
		c0,1.644-1.333,2.974-2.977,2.974C-113.811,226.171-115.145,224.841-115.145,223.197z"/>
	
		<line fill="none" stroke="#898989" stroke-width="1.1046" stroke-miterlimit="10" x1="-113.565" y1="171.299" x2="-98.202" y2="171.299"/>
	
		<line fill="none" stroke="#898989" stroke-width="1.1046" stroke-miterlimit="10" x1="-117.056" y1="176.9" x2="-94.957" y2="176.9"/>
	
		<line fill="none" stroke="#898989" stroke-width="1.1046" stroke-miterlimit="10" x1="-111.9" y1="182.5" x2="-99.108" y2="182.5"/>
	
		<line fill="none" stroke="#898989" stroke-width="1.1046" stroke-miterlimit="10" x1="-113.565" y1="199.799" x2="-98.202" y2="199.799"/>
	
		<line fill="none" stroke="#898989" stroke-width="1.1046" stroke-miterlimit="10" x1="-117.056" y1="205.4" x2="-94.957" y2="205.4"/>
	
		<line fill="none" stroke="#898989" stroke-width="1.1046" stroke-miterlimit="10" x1="-111.9" y1="211.003" x2="-99.108" y2="211.003"/>
</g>
<g>
	<path fill="none" stroke="#FFFFFF" stroke-width="2.4032" stroke-miterlimit="10" d="M63.014,80.295
		c0-0.875-2.803-16.111-15.104-16.111c-12.308,0-5.14,0-18.342,0c-13.208,0-15.146,15.236-15.146,16.111H63.014z"/>
	<path fill="none" stroke="#FFFFFF" stroke-width="2.4032" stroke-miterlimit="10" d="M54.587,19.705h32.421
		c1.525,0,2.77,1.238,2.77,2.771v19.53c0,1.532-1.244,2.771-2.77,2.771H68.807c-0.015-0.004-7.035,4.657-7.15,4.616
		c-0.007-0.007-0.025-4.616,0.003-4.616h-7.071c-1.533,0-2.771-1.24-2.771-2.771v-19.53C51.815,20.949,53.055,19.705,54.587,19.705z
		"/>
	<path fill="none" stroke="#FFFFFF" stroke-width="2.4032" stroke-miterlimit="10" d="M51.815,42.008v-7.562
		c-2.915-4.676-8.102-7.793-14.02-7.793c-9.115,0-16.511,7.396-16.511,16.508c0,9.121,7.396,16.514,16.511,16.514
		c8.585,0,15.638-6.553,16.433-14.932C52.869,44.564,51.815,43.416,51.815,42.008z"/>
</g>
<g>
	<path fill="none" stroke="#FFFFFF" stroke-width="1.9851" stroke-miterlimit="10" d="M141.521,164.809
		c0,4.317-3.502,7.816-7.818,7.816c-4.32,0-7.816-3.499-7.816-7.816c0-4.316,3.496-7.818,7.816-7.818
		C138.02,156.99,141.521,160.492,141.521,164.809z"/>
	<path fill="none" stroke="#FFFFFF" stroke-width="1.9851" stroke-miterlimit="10" d="M130.395,174.762c6.25,0,2.857,0,8.684,0
		c5.828,0,6.562,6.973,6.562,6.973s0,8.961,0,12.6c0,3.637-3.598,7.086-3.598,7.086v23.059h-4.838l-2.363-15.072h-1.139
		l-2.236,15.072h-4.631V201.42c0,0-4.203-2.908-4.203-7.086c0-4.18,0-12.6,0-12.6S124.139,174.762,130.395,174.762z"/>
	<circle fill="none" stroke="#FFFFFF" stroke-width="1.9851" stroke-miterlimit="10" cx="112.717" cy="166.393" r="7.233"/>
	<path fill="none" stroke="#FFFFFF" stroke-width="1.9851" stroke-miterlimit="10" d="M109.654,175.605c5.787,0,4.182,0,9.574,0
		c2.029,0-1.672,1.293-1.672,13.711c0,12.424,2.879,12.424,2.879,12.424v19.867h-4.479l-2.184-13.945h-1.057l-2.064,13.945h-4.291
		v-21.336c0,0-3.887-2.691-3.887-6.556c0-3.87,0-11.659,0-11.659S103.873,175.605,109.654,175.605z"/>
	<path fill="none" stroke="#FFFFFF" stroke-width="1.9851" stroke-miterlimit="10" d="M158.619,175.605c-5.787,0-4.18,0-9.572,0
		c-2.031,0,1.672,1.293,1.672,13.711c0,12.424-2.881,12.424-2.881,12.424v19.867h4.479l2.184-13.945h1.057l2.07,13.945h4.285
		v-21.336c0,0,3.887-2.691,3.887-6.556c0-3.87,0-11.659,0-11.659S164.402,175.605,158.619,175.605z"/>
	<path fill="none" stroke="#FFFFFF" stroke-width="1.9851" stroke-miterlimit="10" d="M161.68,166.393
		c0,3.994-3.24,7.233-7.236,7.233c-3.992,0-7.232-3.239-7.232-7.233s3.24-7.232,7.232-7.232
		C158.439,159.16,161.68,162.398,161.68,166.393z"/>
</g>
<g>
	<path fill="none" stroke="#FFFFFF" stroke-width="2.5649" stroke-miterlimit="10" d="M269.52,158.736h-4.955
		c0,0-2.99-1.676-2.971-2.971c-0.029-1.285-0.887-1.98-1.979-1.98h-9.904c-1.098,0-1.969,0.586-1.982,1.98l-2.973,2.971h-4.947
		c-1.645,0-2.977,1.334-2.977,2.974v1.979c0,1.644,1.332,2.973,2.977,2.973h29.711c1.643,0,2.971-1.329,2.971-2.973v-1.979
		C272.49,160.07,271.162,158.736,269.52,158.736z"/>
	<path fill="#FFFFFF" d="M280.994,157.533h-10.705c1.434,0.265,2.617,1.246,3.158,2.564h7.547c0.795,0,1.443,0.646,1.443,1.441
		v61.748c0,0.795-0.648,1.441-1.443,1.441h-52.666c-0.795,0-1.443-0.646-1.443-1.441v-61.748c0-0.795,0.648-1.441,1.443-1.441h7.541
		c0.543-1.318,1.727-2.3,3.162-2.564h-10.703c-2.209,0-4.008,1.797-4.008,4.006v61.748c0,2.209,1.799,4.006,4.008,4.006h52.666
		c2.209,0,4.008-1.797,4.008-4.006v-61.748C285.002,159.33,283.203,157.533,280.994,157.533z"/>
	<path fill="#FFFFFF" d="M235.953,182.695h6.936v-6.934h-6.936V182.695z M245.857,175.762v1.979h27.732v-1.979H245.857z
		 M245.857,180.714h17.83v-1.979h-17.83V180.714z"/>
	<path fill="#FFFFFF" d="M235.953,194.58h6.936v-6.934h-6.936V194.58z M245.857,187.646v1.979h27.732v-1.979H245.857z
		 M245.857,192.598h22.779v-1.98h-22.779V192.598z"/>
	<path fill="#FFFFFF" d="M235.953,206.466h6.936v-6.935h-6.936V206.466z M245.857,199.531v1.982h27.732v-1.982H245.857z
		 M245.857,204.484h17.83v-1.981h-17.83V204.484z"/>
	<path fill="#FFFFFF" d="M235.953,218.35h6.936v-6.934h-6.936V218.35z M245.857,211.417v1.981h27.732v-1.981H245.857z
		 M245.857,216.369h22.779v-1.982h-22.779V216.369z"/>
</g>
<g>
	<path fill="#81D3F0" d="M-106.228,274.377c17.182,0,31.109,13.928,31.109,31.109s-13.927,31.107-31.109,31.107
		s-31.109-13.926-31.109-31.107S-123.41,274.377-106.228,274.377z"/>
	<g>
		<g>
			<defs>
				<circle id="SVGID_1_" cx="-106.228" cy="305.486" r="31.109"/>
			</defs>
			<clipPath id="SVGID_2_">
				<use xlink:href="#SVGID_1_"  overflow="visible"/>
			</clipPath>
			<g clip-path="url(#SVGID_2_)">
				<path fill="#EBEEEE" d="M-118.38,289.445h24.305c2.146,0,3.889,1.742,3.889,3.889v53.469c0,2.146-1.742,3.891-3.889,3.891
					h-24.305c-2.146,0-3.889-1.742-3.889-3.891v-53.469C-122.269,291.188-120.527,289.445-118.38,289.445z"/>
				<path fill="#FFFFFF" d="M-117.894,290.418h23.332c1.879,0,3.402,1.523,3.402,3.402v52.496c0,1.879-1.523,3.402-3.402,3.402
					h-23.332c-1.879,0-3.402-1.523-3.402-3.402V293.82C-121.296,291.941-119.773,290.418-117.894,290.418z"/>
				<path fill="#AAD485" d="M-119.351,299.166h26.248v41.805h-26.248V299.166z"/>
				<path fill="#FFFFFF" d="M-103.068,295.279h-6.318c-0.404,0-0.73,0.326-0.73,0.729s0.326,0.729,0.73,0.729h6.318
					c0.402,0,0.729-0.326,0.729-0.729S-102.666,295.279-103.068,295.279z M-106.228,342.914c-1.342,0-2.43,1.088-2.43,2.43
					c0,1.344,1.088,2.434,2.43,2.434s2.432-1.09,2.432-2.434C-103.796,344.002-104.886,342.914-106.228,342.914z"/>
				<path fill="#FFFFFF" d="M-105.984,292.361c0.402,0,0.729,0.326,0.729,0.729c0,0.404-0.326,0.73-0.729,0.73
					c-0.404,0-0.73-0.326-0.73-0.73C-106.714,292.688-106.388,292.361-105.984,292.361z"/>
			</g>
		</g>
	</g>
</g>
<g>
	<path id="background_17_" fill="#81D3F0" d="M44.879,305.266c0.143,17.182-13.67,31.225-30.85,31.367
		c-17.18,0.143-31.225-13.67-31.367-30.85c-0.139-16.812,13.35-31.221,30.85-31.367C30.692,274.273,44.737,288.086,44.879,305.266z"
		/>
	<path fill="#FFFFFF" d="M27.676,297.199c-0.014-1.512-1.334-2.812-2.846-2.799c-7.91,0.066-15.82-0.066-23.73,0
		c-1.512,0.014-2.645,1.531-2.631,3.043c0.066,7.91-0.066,15.82,0,23.73c0.012,1.512,1.363,2.84,2.875,2.828
		c7.91-0.064,15.84,0.064,23.818,0c1.02-0.01,1.729-0.721,2.133-1.436c0.359-0.439,0.389-1.021,0.381-1.748
		C27.614,313.068,27.743,305.109,27.676,297.199z M22.001,318.131c-6.023,0.049-11.871-0.049-17.857,0
		c-0.049-6.002,0.049-12.006,0-18.008c6.002-0.051,11.855,0.051,17.857,0C22.051,306.154,21.952,312.193,22.001,318.131z"/>
	<path fill="none" d="M6.063,309.369c0.012-0.01,0.023-0.02,0.035-0.029c-0.021,0-0.041,0-0.061,0.002
		C6.045,309.34,6.055,309.377,6.063,309.369z"/>
	<path fill="#A6D2AB" stroke="#FFFFFF" stroke-width="3" stroke-miterlimit="10" d="M37.167,288.938
		c-1.135-1.115-2.789-0.967-3.922,0.031c-5.529,4.881-11.061,9.734-16.59,14.6c-1.463,1.285-2.926,2.572-4.389,3.861
		c-1.951-2.217-3.902-4.586-5.854-6.857c-0.986-1.148-2.928-0.951-3.92,0.059c-1.127,1.146-0.951,2.801,0.031,3.947
		c2.516,2.93,5.031,5.859,7.547,8.787c1.033,1.205,2.863,0.9,3.92-0.031c2.213-1.951,4.426-3.904,6.639-5.855
		c5.514-4.865,11.029-9.73,16.543-14.598c0.01-0.008,0.018-0.016,0.027-0.021C38.333,291.857,38.186,289.939,37.167,288.938z
		 M10.063,309.369c-0.008,0.008-0.018-0.027-0.025-0.027c0.02-0.002,0.039-0.002,0.061-0.002
		C10.086,309.35,10.075,309.359,10.063,309.369z"/>
	<path fill="#AAD485" d="M37.167,288.938c-1.135-1.115-2.789-0.967-3.922,0.031c-5.529,4.881-11.061,9.734-16.59,14.6
		c-1.463,1.285-2.926,2.572-4.389,3.861c-1.951-2.217-3.902-4.586-5.854-6.857c-0.986-1.148-2.928-0.951-3.92,0.059
		c-1.127,1.146-0.951,2.801,0.031,3.947c2.516,2.93,5.031,5.859,7.547,8.787c1.033,1.205,2.863,0.9,3.92-0.031
		c2.213-1.951,4.426-3.904,6.639-5.855c5.514-4.865,11.029-9.73,16.543-14.598c0.01-0.008,0.018-0.016,0.027-0.021
		C38.333,291.857,38.186,289.939,37.167,288.938z M10.063,309.369c-0.008,0.008-0.018-0.027-0.025-0.027
		c0.02-0.002,0.039-0.002,0.061-0.002C10.086,309.35,10.075,309.359,10.063,309.369z"/>
</g>
<g>
	<path fill="#AAD485" d="M133.703,274.416c17.184,0,31.109,13.928,31.109,31.109s-13.928,31.107-31.109,31.107
		c-17.18,0-31.107-13.928-31.107-31.107C102.594,288.344,116.523,274.416,133.703,274.416z"/>
	<g>
		<g>
			<defs>
				<circle id="SVGID_3_" cx="133.703" cy="305.524" r="31.108"/>
			</defs>
			<clipPath id="SVGID_4_">
				<use xlink:href="#SVGID_3_"  overflow="visible"/>
			</clipPath>
			<polygon clip-path="url(#SVGID_4_)" fill="#81D3F0" points="100.65,326.912 121.066,302.123 141.48,316.705 159.951,290.457 
				169.188,274.416 100.65,274.416 			"/>
		</g>
	</g>
	<path fill="#ECF0F0" d="M142.193,317.301l19.211-27.096l-2.166-1.207l-18.609,26.246l-18.154-12.693l-0.193,0.152l0.215-0.283
		l-1.688-1.682l-13.838,18.172l1.688,1.682l12.391-16.27l20.543,14.645L142.193,317.301L142.193,317.301z"/>
	<path fill="#FFFFFF" d="M107.941,313.787c-2.953,0-5.348,2.395-5.348,5.348s2.395,5.348,5.348,5.348s5.348-2.395,5.348-5.348
		S110.895,313.787,107.941,313.787z M121.551,297.748c-2.953,0-5.346,2.393-5.346,5.346s2.393,5.35,5.346,5.35
		s5.348-2.396,5.348-5.35S124.504,297.748,121.551,297.748z M140.994,310.385c-2.953,0-5.346,2.395-5.346,5.348
		s2.393,5.346,5.346,5.346s5.348-2.393,5.348-5.346S143.947,310.385,140.994,310.385z M159.465,285.109
		c-2.953,0-5.346,2.395-5.346,5.348s2.393,5.346,5.346,5.346s5.348-2.393,5.348-5.346S162.418,285.109,159.465,285.109z"/>
</g>
<g>
	<path fill="#81D3F0" d="M254.77,276.873c17.18,0,31.107,13.928,31.107,31.109s-13.928,31.109-31.107,31.109
		c-17.182,0-31.109-13.928-31.109-31.109S237.588,276.873,254.77,276.873z"/>
	<g>
		<path fill="#ECF0F0" d="M267.893,324.023l-9.236-22.373v-4.361h-7.775v4.373l-9.234,22.361c-0.283,0.77,0.65,1.459,1.459,1.459
			h23.33C267.24,325.482,268.176,324.762,267.893,324.023z"/>
		<path fill="#ECF0F0" d="M250.975,296.787c-0.002,0.006-0.002,0.012-0.004,0.016h7.596c-0.002-0.004-0.002-0.01-0.004-0.016
			c0.602-0.074,1.066-0.58,1.066-1.199c0-0.672-0.543-1.215-1.215-1.215h-7.291c-0.672,0-1.215,0.543-1.215,1.215
			C249.908,296.207,250.373,296.713,250.975,296.787z"/>
	</g>
	<path fill="#AAD485" d="M260.256,309.475c2.426,5.992,5.693,13.576,5.693,13.576c0.283,0.709-0.168,0.973-0.973,0.973h-20.416
		c-0.807,0-1.205-0.223-0.975-0.973c0,0,3.104-7.662,5.504-13.6C252.195,306.752,255.125,310.445,260.256,309.475z"/>
	<path opacity="0.4" fill="#FFFFFF" enable-background="new    " d="M253.553,314.787c-1.477,0-2.672,1.197-2.672,2.674
		c0,1.479,1.195,2.674,2.672,2.674s2.674-1.195,2.674-2.674C256.227,315.984,255.029,314.787,253.553,314.787z M258.656,313.086
		c0-0.67-0.543-1.215-1.215-1.215c-0.67,0-1.215,0.545-1.215,1.215c0,0.672,0.545,1.215,1.215,1.215
		C258.113,314.301,258.656,313.758,258.656,313.086z M260.115,317.705c-1.074,0-1.943,0.869-1.943,1.943s0.869,1.943,1.943,1.943
		s1.945-0.869,1.945-1.943S261.189,317.705,260.115,317.705z"/>
	<path fill="#FFFFFF" d="M255.984,290.484c-0.672,0-1.217,0.543-1.217,1.215s0.545,1.215,1.217,1.215
		c0.67,0,1.215-0.543,1.215-1.215S256.654,290.484,255.984,290.484z M252.582,287.082c-0.939,0-1.701,0.762-1.701,1.701
		s0.762,1.701,1.701,1.701s1.701-0.762,1.701-1.701C254.283,287.842,253.521,287.082,252.582,287.082z"/>
</g>
</svg>
