<?xml version="1.0" encoding="utf-8"?>
<!-- Generator: Adobe Illustrator 16.0.0, SVG Export Plug-In . SVG Version: 6.00 Build 0)  -->
<!DOCTYPE svg PUBLIC "-//W3C//DTD SVG 1.1//EN" "http://www.w3.org/Graphics/SVG/1.1/DTD/svg11.dtd">
<svg version="1.1" id="Layer_1" xmlns="http://www.w3.org/2000/svg" xmlns:xlink="http://www.w3.org/1999/xlink" x="0px" y="0px"
	 width="100px" height="100px" viewBox="0 0 100 100" enable-background="new 0 0 100 100" xml:space="preserve">
<path fill="#A9D384" d="M61.985,26.003H39.009c-1.1,0-2,0.9-2,2v44.458c0,1.1,0.9,2,2,2h22.977c1.1,0,2-0.9,2-2V28.003
	C63.985,26.903,63.085,26.003,61.985,26.003z M50.497,72.945c-1.1,0-1.992-0.892-1.992-1.992c0-1.1,0.893-1.991,1.992-1.991
	s1.992,0.892,1.992,1.991C52.489,72.054,51.597,72.945,50.497,72.945z M62.163,66.559H38.831V32.526h23.332V66.559z"/>
</svg>
