<?xml version="1.0" encoding="utf-8"?>
<!-- Generator: Adobe Illustrator 16.0.0, SVG Export Plug-In . SVG Version: 6.00 Build 0)  -->
<!DOCTYPE svg PUBLIC "-//W3C//DTD SVG 1.1//EN" "http://www.w3.org/Graphics/SVG/1.1/DTD/svg11.dtd">
<svg version="1.1" id="Layer_1" xmlns="http://www.w3.org/2000/svg" xmlns:xlink="http://www.w3.org/1999/xlink" x="0px" y="0px"
	 width="100px" height="100px" viewBox="0 0 100 100" enable-background="new 0 0 100 100" xml:space="preserve">
<path fill="#58595B" d="M61.33,26.124H38.354c-1.1,0-2,0.9-2,2V72.58c0,1.101,0.9,2,2,2H61.33c1.1,0,2-0.899,2-2V28.124
	C63.33,27.023,62.43,26.124,61.33,26.124z M49.842,73.065c-1.1,0-1.992-0.892-1.992-1.991c0-1.101,0.893-1.992,1.992-1.992
	s1.992,0.892,1.992,1.992C51.834,72.174,50.941,73.065,49.842,73.065z M61.508,66.68H38.176V32.646h23.332V66.68z"/>
</svg>
