<?xml version="1.0" encoding="utf-8"?>
<!-- Generator: Adobe Illustrator 16.0.0, SVG Export Plug-In . SVG Version: 6.00 Build 0)  -->
<!DOCTYPE svg PUBLIC "-//W3C//DTD SVG 1.1//EN" "http://www.w3.org/Graphics/SVG/1.1/DTD/svg11.dtd">
<svg version="1.1" id="Layer_1" xmlns="http://www.w3.org/2000/svg" xmlns:xlink="http://www.w3.org/1999/xlink" x="0px" y="0px"
	 width="100px" height="100px" viewBox="0 0 100 100" enable-background="new 0 0 100 100" xml:space="preserve">
<g>
	<path fill="none" stroke="#FFFFFF" stroke-width="4.3846" stroke-miterlimit="10" d="M74.284,20.455H63.913
		c-0.125-0.017-0.23-0.073-0.359-0.073h-4.633c0,0-2.797-1.566-2.775-2.778c-0.029-1.201-0.831-1.852-1.85-1.852h-9.26
		c-1.026,0-1.84,0.549-1.854,1.852l-2.777,2.778h-4.628c-0.128,0-0.238,0.056-0.361,0.073H25.046c-1.406,0-2.548,1.14-2.548,2.547
		v57.727c0,1.408,1.142,2.547,2.548,2.547h49.238c1.404,0,2.547-1.139,2.547-2.547V23.002
		C76.831,21.595,75.688,20.455,74.284,20.455z"/>
	<path fill="none" stroke="#FFFFFF" stroke-width="4.3846" stroke-miterlimit="10" d="M63.554,20.382h-4.633
		c0,0-2.797-1.566-2.775-2.778c-0.029-1.201-0.831-1.852-1.85-1.852h-9.26c-1.026,0-1.84,0.549-1.854,1.852l-2.777,2.778h-4.628
		c-1.537,0-2.782,1.245-2.782,2.778v1.852c0,1.535,1.245,2.779,2.782,2.779h27.778c1.536,0,2.778-1.244,2.778-2.779V23.16
		C66.332,21.627,65.09,20.382,63.554,20.382z"/>
	<path fill="#FFFFFF" d="M32.072,42.78h6.481v-6.483h-6.481V42.78z M41.33,36.297v1.852h25.927v-1.852H41.33z M41.33,40.928H58
		v-1.852H41.33V40.928z"/>
	<path fill="#FFFFFF" d="M32.072,53.893h6.481V47.41h-6.481V53.893z M41.33,47.41v1.851h25.927V47.41H41.33z M41.33,52.04h21.296
		v-1.852H41.33V52.04z"/>
	<path fill="#FFFFFF" d="M32.072,65.005h6.481v-6.484h-6.481V65.005z M41.33,58.521v1.854h25.927v-1.854H41.33z M41.33,63.15H58
		v-1.852H41.33V63.15z"/>
	<path fill="#FFFFFF" d="M32.072,76.116h6.481v-6.482h-6.481V76.116z M41.33,69.634v1.852h25.927v-1.852H41.33z M41.33,74.262
		h21.296V72.41H41.33V74.262z"/>
</g>
</svg>
