<?xml version="1.0" encoding="utf-8"?>
<!-- Generator: Adobe Illustrator 16.0.0, SVG Export Plug-In . SVG Version: 6.00 Build 0)  -->
<!DOCTYPE svg PUBLIC "-//W3C//DTD SVG 1.1//EN" "http://www.w3.org/Graphics/SVG/1.1/DTD/svg11.dtd">
<svg version="1.1" id="Layer_1" xmlns="http://www.w3.org/2000/svg" xmlns:xlink="http://www.w3.org/1999/xlink" x="0px" y="0px"
	 width="100px" height="100px" viewBox="0 0 100 100" enable-background="new 0 0 100 100" xml:space="preserve">
<g>
	<path fill="none" stroke="#FFFFFF" stroke-width="2.5649" stroke-miterlimit="10" d="M64.555,19.297H59.6
		c0,0-2.99-1.676-2.971-2.971c-0.029-1.285-0.887-1.98-1.979-1.98h-9.904c-1.098,0-1.969,0.586-1.983,1.98l-2.972,2.971h-4.948
		c-1.644,0-2.976,1.334-2.976,2.973v1.98c0,1.643,1.332,2.973,2.976,2.973h29.712c1.643,0,2.971-1.33,2.971-2.973v-1.98
		C67.525,20.631,66.197,19.297,64.555,19.297z"/>
	<path fill="#FFFFFF" d="M76.029,18.093H65.324c1.434,0.265,2.617,1.247,3.158,2.564h7.547c0.795,0,1.442,0.647,1.442,1.442v61.748
		c0,0.795-0.647,1.441-1.442,1.441H23.363c-0.795,0-1.443-0.646-1.443-1.441V22.1c0-0.795,0.648-1.442,1.443-1.442h7.541
		c0.542-1.317,1.727-2.3,3.162-2.564H23.363c-2.21,0-4.008,1.798-4.008,4.007v61.748c0,2.209,1.798,4.006,4.008,4.006h52.666
		c2.209,0,4.007-1.797,4.007-4.006V22.1C80.036,19.891,78.238,18.093,76.029,18.093z"/>
	<path fill="#FFFFFF" d="M30.988,43.256h6.935v-6.934h-6.935V43.256z M40.893,36.322v1.979h27.732v-1.979H40.893z M40.893,41.273
		h17.829v-1.979H40.893V41.273z"/>
	<path fill="#FFFFFF" d="M30.988,55.141h6.935v-6.934h-6.935V55.141z M40.893,48.207v1.979h27.732v-1.979H40.893z M40.893,53.158
		h22.778v-1.98H40.893V53.158z"/>
	<path fill="#FFFFFF" d="M30.988,67.025h6.935v-6.934h-6.935V67.025z M40.893,60.092v1.982h27.732v-1.982H40.893z M40.893,65.045
		h17.829v-1.982H40.893V65.045z"/>
	<path fill="#FFFFFF" d="M30.988,78.91h6.935v-6.934h-6.935V78.91z M40.893,71.977v1.982h27.732v-1.982H40.893z M40.893,76.93
		h22.778v-1.982H40.893V76.93z"/>
</g>
</svg>
