<?xml version="1.0" encoding="utf-8"?>
<!-- Generator: Adobe Illustrator 16.0.0, SVG Export Plug-In . SVG Version: 6.00 Build 0)  -->
<!DOCTYPE svg PUBLIC "-//W3C//DTD SVG 1.1//EN" "http://www.w3.org/Graphics/SVG/1.1/DTD/svg11.dtd">
<svg version="1.1" id="Layer_1" xmlns="http://www.w3.org/2000/svg" xmlns:xlink="http://www.w3.org/1999/xlink" x="0px" y="0px"
	 width="213.333px" height="77.674px" viewBox="0 0 213.333 77.674" enable-background="new 0 0 213.333 77.674"
	 xml:space="preserve">
<g>
	<g>
		<path opacity="0.5" fill="#FFFFFF" d="M164.474,45.262c-16.564-6.75-33.266-14.877-37.33-16.937
			C127.421,36.047,149.583,43.095,164.474,45.262z"/>
		<path opacity="0.5" fill="#FFFFFF" d="M154.375,44.759c-7.883-1.831-18.637-3.94-23.521-5.582
			C133.177,44.84,147.627,44.95,154.375,44.759z"/>
		<path opacity="0.5" fill="#FFFFFF" d="M150.404,46.919c-4.094-0.209-8.416-0.52-13.418-1.177
			C140.089,48.85,147.552,47.647,150.404,46.919z"/>
		<path fill="#FFFFFF" d="M145.293,47.792C169.191,27.647,192.798,5.613,198.445,0C199.409,6.858,181.621,30.862,145.293,47.792z"/>
		<path fill="#FFFFFF" d="M149.152,47.32c23.072-13.236,44.384-27.193,49.965-31.036C197.896,25.451,170.667,41.171,149.152,47.32z"
			/>
		<path fill="#FFFFFF" d="M156.347,45.131c16.898-5.865,34.482-13.098,38.648-14.939C194.312,37.888,171.332,43.754,156.347,45.131z
			"/>
		<path fill="#FFFFFF" d="M163.027,44.679c7.971-1.412,19.271-2.046,24.237-3.427C184.644,46.783,169.755,45.227,163.027,44.679z"/>
		<path fill="#FFFFFF" d="M164.474,45.262c4.102,0.008,9.13,1.783,14.16,1.391C175.373,49.592,167.284,46.14,164.474,45.262z"/>
	</g>
	<g>
		<path fill="#FFFFFF" d="M18.284,67.606h-2.559l-3.245-4.94c-0.24,0.011-0.436,0.016-0.586,0.016c-0.062,0-0.128-0.001-0.198-0.004
			s-0.144-0.007-0.219-0.012v3.07c0,0.664,0.066,1.078,0.198,1.238c0.179,0.229,0.448,0.343,0.806,0.343h0.375v0.289H8.748v-0.289
			h0.36c0.405,0,0.695-0.145,0.869-0.437c0.1-0.16,0.149-0.542,0.149-1.145V58.91c0-0.665-0.066-1.078-0.198-1.238
			c-0.184-0.229-0.457-0.344-0.82-0.344h-0.36V57.04h3.492c1.019,0,1.769,0.082,2.252,0.245c0.482,0.164,0.893,0.466,1.229,0.904
			c0.337,0.439,0.505,0.962,0.505,1.57c0,0.649-0.192,1.213-0.576,1.69c-0.384,0.479-0.979,0.815-1.786,1.014l1.98,3.03
			c0.452,0.696,0.841,1.158,1.167,1.387c0.325,0.229,0.75,0.375,1.272,0.437V67.606z M11.476,62.176c0.09,0,0.167,0,0.234,0.003
			c0.065,0.003,0.12,0.005,0.162,0.005c0.914,0,1.604-0.219,2.068-0.655c0.464-0.437,0.696-0.992,0.696-1.667
			c0-0.66-0.187-1.196-0.562-1.609c-0.375-0.413-0.871-0.62-1.488-0.62c-0.274,0-0.644,0.05-1.11,0.148V62.176z"/>
		<path fill="#FFFFFF" d="M21.458,60.791c1.021,0.067,1.815,0.502,2.384,1.307c0.483,0.687,0.696,1.452,0.641,2.297
			c-0.039,0.595-0.223,1.187-0.553,1.775c-0.33,0.59-0.759,1.022-1.287,1.298c-0.528,0.276-1.104,0.394-1.728,0.353
			c-1.016-0.066-1.797-0.518-2.344-1.354c-0.461-0.704-0.665-1.475-0.609-2.31c0.04-0.608,0.233-1.203,0.579-1.785
			c0.346-0.58,0.779-0.998,1.299-1.253C20.36,60.864,20.899,60.755,21.458,60.791z M21.2,61.247
			c-0.26-0.017-0.527,0.042-0.799,0.177c-0.273,0.135-0.502,0.389-0.689,0.759c-0.187,0.371-0.301,0.855-0.34,1.454
			c-0.063,0.967,0.077,1.812,0.421,2.538c0.344,0.727,0.835,1.11,1.474,1.151c0.476,0.032,0.881-0.136,1.216-0.502
			c0.334-0.365,0.533-1.02,0.594-1.962c0.078-1.178-0.119-2.122-0.59-2.832C22.168,61.543,21.739,61.282,21.2,61.247z"/>
		<path fill="#FFFFFF" d="M26.956,62.152c0.626-0.961,1.303-1.442,2.029-1.442c0.665,0,1.244,0.313,1.739,0.938
			c0.495,0.627,0.742,1.482,0.742,2.568c0,1.268-0.382,1.836-1.145,2.61c-0.655,0.665-1.386,0.997-2.192,0.997
			c-0.377,0-0.76-0.075-1.148-0.227c-0.39-0.149-0.786-0.376-1.191-0.678v-7.395c0-0.81-0.018-1.309-0.053-1.496
			c-0.036-0.187-0.091-0.314-0.167-0.382c-0.075-0.067-0.169-0.101-0.282-0.101c-0.132,0-0.297,0.042-0.495,0.125l-0.099-0.273
			l1.944-0.873h0.318V62.152z M26.956,62.65v3.818c0.24,0.26,0.488,0.455,0.746,0.588s0.52,0.199,0.788,0.199
			c0.429,0,0.829-0.26,1.199-0.779c0.37-0.52,0.555-0.823,0.555-1.815c0-0.914-0.185-1.617-0.555-2.107
			c-0.37-0.491-0.791-0.737-1.262-0.737c-0.25,0-0.5,0.07-0.75,0.211C27.488,62.131,27.247,62.339,26.956,62.65z"/>
		<path fill="#FFFFFF" d="M33.509,63.455c-0.004,0.992,0.229,1.77,0.7,2.334s1.025,0.847,1.661,0.847
			c0.424,0,0.793-0.12,1.106-0.361s0.577-0.653,0.789-1.236l0.219,0.146c-0.099,0.666-0.387,1.273-0.863,1.82
			s-1.072,0.82-1.789,0.82c-0.777,0-1.443-0.312-1.997-0.938s-0.831-1.465-0.831-2.52c0-1.143,0.284-2.034,0.852-2.674
			c0.568-0.639,1.281-0.959,2.139-0.959c0.726,0,1.322,0.247,1.789,0.74c0.466,0.494,0.7,1.154,0.7,1.98H33.509z M33.509,63.032
			h2.998c-0.023-0.428-0.072-0.729-0.148-0.904c-0.118-0.272-0.294-0.486-0.527-0.642c-0.233-0.156-0.477-0.234-0.732-0.234
			c-0.391,0-0.741,0.157-1.05,0.471C33.741,62.037,33.561,62.473,33.509,63.032z"/>
		<path fill="#FFFFFF" d="M40.742,60.742v1.502c0.542-1.002,1.098-1.502,1.668-1.502c0.259,0,0.474,0.081,0.643,0.244
			c0.17,0.163,0.255,0.352,0.255,0.565c0,0.189-0.062,0.35-0.184,0.481c-0.123,0.131-0.269,0.196-0.438,0.196
			c-0.165,0-0.35-0.084-0.555-0.251c-0.205-0.168-0.357-0.252-0.456-0.252c-0.084,0-0.177,0.049-0.275,0.146
			c-0.212,0.199-0.432,0.527-0.658,0.984v3.201c0,0.37,0.044,0.649,0.134,0.84c0.062,0.131,0.17,0.24,0.325,0.328
			c0.155,0.087,0.379,0.131,0.672,0.131v0.263h-3.316v-0.263c0.33,0,0.575-0.053,0.735-0.16c0.118-0.078,0.2-0.202,0.248-0.372
			c0.023-0.083,0.035-0.319,0.035-0.708v-2.589c0-0.778-0.016-1.241-0.046-1.39c-0.031-0.148-0.088-0.257-0.17-0.324
			c-0.082-0.068-0.185-0.103-0.308-0.103c-0.146,0-0.311,0.036-0.495,0.109l-0.071-0.263l1.958-0.816H40.742z"/>
		<path fill="#FFFFFF" d="M45.549,58.743v2.196h1.513v0.51h-1.513v4.332c0,0.434,0.06,0.725,0.18,0.876
			c0.12,0.15,0.274,0.226,0.463,0.226c0.156,0,0.307-0.05,0.453-0.148c0.146-0.1,0.259-0.247,0.339-0.441h0.276
			c-0.165,0.477-0.398,0.835-0.7,1.075c-0.302,0.241-0.613,0.361-0.934,0.361c-0.217,0-0.429-0.062-0.637-0.187
			c-0.207-0.124-0.36-0.301-0.459-0.531c-0.099-0.231-0.148-0.588-0.148-1.069v-4.493h-1.025v-0.24
			c0.26-0.107,0.524-0.288,0.796-0.544c0.271-0.255,0.512-0.558,0.724-0.908c0.109-0.185,0.259-0.522,0.453-1.014H45.549z"/>
		<path fill="#FFFFFF" d="M83.188,66.803c-0.316,0.364-0.625,0.626-0.927,0.784c-0.301,0.158-0.626,0.237-0.975,0.237
			c-0.708,0-1.325-0.326-1.853-0.978c-0.528-0.652-0.792-1.038-0.792-2.062c0-1.022,0.292-1.959,0.876-2.809
			c0.585-0.85,1.336-1.273,2.255-1.273c0.57,0,1.042,0.199,1.414,0.6v-1.317c0-0.815-0.018-1.769-0.053-1.956
			c-0.035-0.187-0.091-0.314-0.166-0.382c-0.076-0.067-0.169-0.101-0.283-0.101c-0.123,0-0.285,0.042-0.488,0.125l-0.092-0.273
			l1.931-0.873l0.317,0.453v8.252c0,0.384,0.019,0.894,0.054,1.078s0.091,0.312,0.169,0.386c0.078,0.073,0.168,0.108,0.272,0.108
			c0.127,0,0.297-0.043,0.509-0.131l0.078,0.272l-1.923,0.88h-0.325V66.803z M83.188,66.258v-3.226
			c-0.028-0.354-0.113-0.675-0.254-0.966c-0.142-0.291-0.329-0.511-0.562-0.658c-0.233-0.148-0.46-0.223-0.682-0.223
			c-0.415,0-0.784,0.206-1.11,0.615c-0.429,0.541-0.643,1.33-0.643,2.369c0,1.05,0.207,1.401,0.622,1.959
			c0.415,0.559,0.877,0.838,1.386,0.838C82.373,66.967,82.788,66.73,83.188,66.258z"/>
		<path fill="#FFFFFF" d="M103.671,56.525v5.673c0.522-0.633,0.938-1.04,1.244-1.219c0.306-0.179,0.613-0.27,0.919-0.27
			c0.368,0,0.683,0.112,0.948,0.336c0.264,0.224,0.459,0.573,0.586,1.052c0.09,0.332,0.134,0.94,0.134,1.823v2.072
			c0,0.452,0.033,0.761,0.1,0.927c0.046,0.125,0.126,0.224,0.24,0.297c0.113,0.072,0.32,0.108,0.623,0.108v0.281h-3.182v-0.281
			h0.148c0.302,0,0.512-0.05,0.63-0.151s0.2-0.25,0.247-0.448c0.015-0.083,0.021-0.327,0.021-0.732v-2.072
			c0-0.779-0.037-1.291-0.11-1.535c-0.073-0.244-0.189-0.427-0.35-0.55c-0.16-0.122-0.353-0.183-0.58-0.183
			c-0.231,0-0.471,0.067-0.721,0.202c-0.25,0.136-0.549,0.408-0.897,0.818v3.319c0,0.488,0.025,0.792,0.074,0.911
			c0.049,0.12,0.141,0.22,0.275,0.301c0.135,0.08,0.367,0.12,0.697,0.12v0.281h-3.209v-0.281c0.287,0,0.513-0.049,0.678-0.147
			c0.094-0.052,0.17-0.15,0.226-0.297c0.057-0.145,0.085-0.441,0.085-0.436v-6.46c0-1.268-0.018-1.769-0.053-1.956
			c-0.036-0.187-0.09-0.314-0.163-0.382c-0.073-0.067-0.17-0.101-0.293-0.101c-0.099,0-0.26,0.042-0.48,0.125l-0.1-0.273
			l1.938-0.873H103.671z"/>
		<path fill="#FFFFFF" d="M110.896,62.179c0.759-0.939,1.482-1.409,2.17-1.409c0.354,0,0.658,0.091,0.912,0.272
			c0.256,0.182,0.458,0.48,0.608,0.897c0.104,0.29,0.155,0.736,0.155,1.336v2.842c0,0.421,0.033,0.707,0.1,0.857
			c0.052,0.121,0.135,0.215,0.251,0.283c0.115,0.067,0.329,0.102,0.64,0.102v0.262h-3.203v-0.262h0.135
			c0.302,0,0.513-0.047,0.633-0.143c0.12-0.094,0.204-0.232,0.25-0.417c0.02-0.072,0.029-0.3,0.029-0.683v-2.725
			c0-0.605-0.076-1.045-0.229-1.319c-0.153-0.273-0.411-0.41-0.774-0.41c-0.561,0-1.119,0.315-1.676,0.944v3.51
			c0,0.45,0.025,0.729,0.078,0.835c0.065,0.141,0.156,0.243,0.271,0.31c0.115,0.064,0.35,0.098,0.703,0.098v0.262h-3.202v-0.262
			h0.142c0.33,0,0.553-0.086,0.668-0.258s0.174-0.5,0.174-0.984v-2.471c0-0.799-0.018-1.286-0.053-1.461
			c-0.035-0.174-0.09-0.292-0.164-0.355c-0.072-0.062-0.17-0.094-0.293-0.094c-0.133,0-0.289,0.036-0.474,0.108l-0.105-0.262
			l1.95-0.813h0.305V62.179z"/>
		<path fill="#FFFFFF" d="M120.433,60.77v2.267h-0.232c-0.18-0.712-0.41-1.196-0.689-1.453c-0.281-0.257-0.639-0.385-1.071-0.385
			c-0.329,0-0.597,0.09-0.8,0.269c-0.202,0.179-0.303,0.378-0.303,0.596c0,0.271,0.075,0.504,0.227,0.697
			c0.145,0.199,0.442,0.41,0.891,0.633l1.031,0.516c0.957,0.479,1.436,1.111,1.436,1.896c0,0.605-0.223,1.094-0.668,1.464
			s-0.943,0.556-1.495,0.556c-0.396,0-0.849-0.073-1.357-0.218c-0.155-0.049-0.283-0.073-0.382-0.073
			c-0.109,0-0.193,0.063-0.255,0.189h-0.233v-2.376h0.233c0.132,0.679,0.384,1.188,0.757,1.533c0.372,0.344,0.789,0.516,1.251,0.516
			c0.325,0,0.591-0.098,0.796-0.294s0.307-0.433,0.307-0.709c0-0.334-0.113-0.614-0.342-0.843c-0.229-0.228-0.686-0.516-1.369-0.864
			s-1.131-0.663-1.343-0.945c-0.212-0.275-0.317-0.624-0.317-1.045c0-0.547,0.182-1.006,0.547-1.373
			c0.365-0.369,0.838-0.553,1.418-0.553c0.254,0,0.562,0.056,0.926,0.167c0.24,0.073,0.4,0.109,0.48,0.109
			c0.076,0,0.135-0.018,0.178-0.052c0.042-0.033,0.092-0.108,0.148-0.225H120.433z"/>
		<path fill="#FFFFFF" d="M131.009,62.179c0.76-0.939,1.482-1.409,2.172-1.409c0.354,0,0.656,0.091,0.912,0.272
			c0.254,0.182,0.457,0.48,0.607,0.897c0.104,0.29,0.155,0.736,0.155,1.336v2.842c0,0.421,0.032,0.707,0.099,0.857
			c0.053,0.121,0.137,0.215,0.252,0.283c0.115,0.067,0.328,0.102,0.64,0.102v0.262h-3.202v-0.262h0.133
			c0.303,0,0.514-0.047,0.634-0.143c0.12-0.094,0.204-0.232,0.251-0.417c0.018-0.072,0.027-0.3,0.027-0.683v-2.725
			c0-0.605-0.076-1.045-0.229-1.319c-0.154-0.273-0.412-0.41-0.775-0.41c-0.561,0-1.119,0.315-1.676,0.944v3.51
			c0,0.45,0.027,0.729,0.078,0.835c0.066,0.141,0.157,0.243,0.272,0.31c0.115,0.064,0.351,0.098,0.704,0.098v0.262h-3.203v-0.262
			h0.141c0.33,0,0.553-0.086,0.668-0.258c0.116-0.172,0.174-0.5,0.174-0.984v-2.471c0-0.799-0.018-1.286-0.053-1.461
			c-0.035-0.174-0.09-0.292-0.162-0.355c-0.074-0.062-0.172-0.094-0.294-0.094c-0.132,0-0.29,0.036-0.474,0.108l-0.105-0.262
			l1.951-0.813h0.303V62.179z"/>
		<path fill="#FFFFFF" d="M143.187,57.765v4.605h2.199c0.4,0,0.693-0.098,0.88-0.293c0.186-0.194,0.31-0.58,0.371-1.156h0.262v3.576
			h-0.262c-0.005-0.41-0.054-0.712-0.146-0.903c-0.092-0.192-0.219-0.336-0.381-0.433c-0.163-0.097-0.404-0.145-0.725-0.145h-2.199
			v2.868c0,0.534,0.031,0.888,0.092,1.059c0.047,0.13,0.146,0.242,0.297,0.336c0.208,0.124,0.424,0.187,0.65,0.187h0.347v0.288
			h-4.114v-0.288h0.34c0.395,0,0.682-0.128,0.861-0.382c0.113-0.166,0.17-0.566,0.17-0.748V59.51c0-0.986-0.03-1.34-0.092-1.512
			c-0.047-0.129-0.145-0.241-0.289-0.335c-0.203-0.124-0.42-0.187-0.65-0.187h-0.34v-0.289h7.133l0.092,2.322h-0.247
			c-0.122-0.493-0.265-0.855-0.427-1.087c-0.163-0.23-0.363-0.398-0.602-0.502c-0.238-0.104-0.607-0.156-1.107-0.156H143.187z"/>
		<path fill="#FFFFFF" d="M161.192,61.343v3.897c0,0.745,0.019,1.199,0.054,1.366c0.035,0.166,0.092,0.282,0.168,0.348
			c0.078,0.065,0.17,0.099,0.273,0.099c0.146,0,0.311-0.04,0.494-0.12l0.1,0.246l-1.938,0.793h-0.318v-1.362
			c-0.557,0.6-0.98,0.977-1.271,1.131c-0.293,0.155-0.602,0.231-0.928,0.231c-0.363,0-0.678-0.104-0.943-0.312
			c-0.266-0.209-0.451-0.477-0.555-0.805c-0.104-0.327-0.155-0.791-0.155-1.391v-2.872c0-0.304-0.032-0.515-0.099-0.632
			c-0.066-0.116-0.164-0.206-0.294-0.27s-0.364-0.094-0.704-0.088v-0.261h2.27v4.306c0,0.6,0.105,0.992,0.314,1.18
			c0.211,0.187,0.464,0.28,0.761,0.28c0.202,0,0.433-0.063,0.689-0.189s0.562-0.368,0.915-0.724v-3.644
			c0-0.366-0.066-0.613-0.201-0.741c-0.135-0.129-0.414-0.197-0.838-0.207v-0.261H161.192z"/>
		<path fill="#FFFFFF" d="M165.386,62.517c0.758-0.908,1.482-1.362,2.17-1.362c0.354,0,0.658,0.087,0.912,0.263
			c0.255,0.176,0.457,0.465,0.609,0.867c0.104,0.28,0.154,0.712,0.154,1.292v2.746c0,0.407,0.033,0.684,0.1,0.828
			c0.052,0.117,0.135,0.209,0.25,0.273c0.117,0.066,0.33,0.099,0.641,0.099v0.253h-3.203v-0.253h0.135
			c0.301,0,0.512-0.046,0.633-0.137c0.119-0.091,0.203-0.226,0.25-0.403c0.02-0.07,0.029-0.291,0.029-0.66v-2.633
			c0-0.586-0.076-1.011-0.23-1.275c-0.152-0.264-0.41-0.396-0.773-0.396c-0.561,0-1.119,0.305-1.676,0.912v3.393
			c0,0.436,0.025,0.705,0.078,0.807c0.066,0.137,0.156,0.236,0.271,0.299c0.116,0.063,0.351,0.095,0.704,0.095v0.253h-3.203v-0.253
			h0.142c0.33,0,0.553-0.083,0.668-0.249s0.174-0.483,0.174-0.951v-2.388c0-0.772-0.018-1.243-0.053-1.411
			c-0.035-0.169-0.09-0.283-0.164-0.345c-0.072-0.061-0.17-0.091-0.293-0.091c-0.132,0-0.289,0.035-0.474,0.105l-0.106-0.253
			l1.952-0.786h0.304V62.517z"/>
		<path fill="#FFFFFF" d="M175.519,66.951c-0.316,0.364-0.625,0.625-0.926,0.783c-0.303,0.158-0.627,0.237-0.976,0.237
			c-0.707,0-1.325-0.325-1.853-0.978c-0.527-0.651-0.792-1.037-0.792-2.061s0.292-1.96,0.876-2.809
			c0.586-0.85,1.337-1.274,2.256-1.274c0.57,0,1.041,0.2,1.414,0.6v-1.769c0-0.816-0.018-1.316-0.053-1.504
			s-0.092-0.314-0.166-0.382c-0.076-0.067-0.17-0.102-0.283-0.102c-0.123,0-0.285,0.042-0.488,0.125l-0.092-0.272l1.931-0.873h0.317
			v8.252c0,0.836,0.018,1.347,0.055,1.531c0.035,0.185,0.091,0.312,0.168,0.386c0.078,0.072,0.17,0.108,0.273,0.108
			c0.127,0,0.297-0.044,0.508-0.133l0.078,0.273l-1.923,0.88h-0.325V66.951z M175.519,66.406V63.18
			c-0.028-0.353-0.113-0.675-0.254-0.966c-0.142-0.29-0.329-0.51-0.562-0.658c-0.233-0.147-0.461-0.223-0.683-0.223
			c-0.415,0-0.784,0.206-1.109,0.616c-0.43,0.54-0.644,1.33-0.644,2.368c0,1.05,0.207,1.401,0.621,1.96
			c0.416,0.559,0.877,0.838,1.387,0.838C174.704,67.115,175.119,66.879,175.519,66.406z"/>
		<path fill="#FFFFFF" d="M181.564,66.849c-0.664,0.511-1.082,0.806-1.251,0.885c-0.255,0.117-0.526,0.175-0.813,0.175
			c-0.447,0-0.816-0.151-1.106-0.456c-0.29-0.304-0.435-0.704-0.435-1.2c0-0.313,0.07-0.585,0.212-0.814
			c0.194-0.318,0.528-0.618,1.008-0.898c0.478-0.281,1.273-0.623,2.386-1.026v-0.252c0-0.642-0.102-1.082-0.308-1.32
			c-0.205-0.239-0.503-0.358-0.894-0.358c-0.298,0-0.533,0.08-0.707,0.238c-0.18,0.16-0.27,0.343-0.27,0.548l0.014,0.407
			c0,0.216-0.055,0.382-0.166,0.499c-0.109,0.117-0.255,0.176-0.434,0.176c-0.175,0-0.317-0.062-0.428-0.183
			c-0.111-0.122-0.167-0.288-0.167-0.499c0-0.402,0.208-0.771,0.622-1.109c0.415-0.337,0.996-0.505,1.746-0.505
			c0.576,0,1.047,0.096,1.414,0.287c0.278,0.146,0.484,0.373,0.615,0.682c0.086,0.201,0.127,0.612,0.127,1.236v2.184
			c0,0.613,0.012,0.988,0.035,1.126c0.024,0.139,0.062,0.231,0.117,0.278s0.117,0.07,0.188,0.07c0.076,0,0.141-0.017,0.197-0.05
			c0.1-0.061,0.291-0.231,0.573-0.513v0.394c-0.528,0.702-1.032,1.053-1.513,1.053c-0.23,0-0.414-0.079-0.551-0.238
			C181.639,67.504,181.568,67.232,181.564,66.849z M181.564,66.393v-2.451c-0.712,0.28-1.172,0.48-1.379,0.598
			c-0.372,0.205-0.639,0.421-0.799,0.646s-0.24,0.471-0.24,0.737c0,0.337,0.102,0.616,0.305,0.839
			c0.201,0.223,0.436,0.333,0.699,0.333C180.509,67.094,180.98,66.86,181.564,66.393z"/>
		<path fill="#FFFFFF" d="M186.244,59.229v2.113h1.514v0.492h-1.514v4.171c0,0.416,0.061,0.698,0.18,0.843
			c0.121,0.146,0.275,0.218,0.463,0.218c0.156,0,0.307-0.048,0.453-0.145c0.146-0.096,0.26-0.237,0.34-0.425h0.275
			c-0.164,0.46-0.398,0.805-0.699,1.036c-0.303,0.231-0.613,0.348-0.934,0.348c-0.217,0-0.43-0.06-0.637-0.18
			c-0.207-0.119-0.361-0.289-0.459-0.512c-0.1-0.223-0.148-0.565-0.148-1.029v-4.325h-1.025v-0.231
			c0.26-0.104,0.523-0.278,0.795-0.523c0.271-0.246,0.512-0.537,0.725-0.875c0.109-0.177,0.26-0.502,0.453-0.976H186.244z"/>
		<path fill="#FFFFFF" d="M190.826,61.154v5.168c0,0.402,0.029,0.67,0.089,0.804s0.146,0.233,0.262,0.298
			c0.116,0.066,0.326,0.099,0.634,0.099v0.253h-3.146v-0.253c0.315,0,0.527-0.03,0.636-0.091c0.108-0.062,0.194-0.162,0.259-0.303
			c0.062-0.14,0.095-0.409,0.095-0.807v-2.479c0-0.698-0.021-1.15-0.063-1.355c-0.033-0.15-0.085-0.255-0.156-0.312
			c-0.07-0.059-0.166-0.088-0.289-0.088c-0.132,0-0.293,0.035-0.48,0.105l-0.1-0.253l1.951-0.786H190.826z M190.24,57.014
			c0.197,0,0.366,0.068,0.506,0.207c0.139,0.138,0.209,0.305,0.209,0.502c0,0.196-0.07,0.365-0.209,0.506
			c-0.14,0.141-0.309,0.21-0.506,0.21s-0.367-0.069-0.51-0.21c-0.141-0.141-0.211-0.31-0.211-0.506c0-0.197,0.068-0.364,0.209-0.502
			C189.867,57.082,190.037,57.014,190.24,57.014z"/>
		<path fill="#FFFFFF" d="M201.654,62.517c0.758-0.908,1.482-1.362,2.17-1.362c0.354,0,0.658,0.087,0.912,0.263
			c0.256,0.176,0.457,0.465,0.609,0.867c0.104,0.28,0.154,0.712,0.154,1.292v2.746c0,0.407,0.033,0.684,0.1,0.828
			c0.052,0.117,0.135,0.209,0.25,0.273c0.117,0.066,0.33,0.099,0.641,0.099v0.253h-3.203v-0.253h0.135
			c0.301,0,0.512-0.046,0.633-0.137s0.203-0.226,0.25-0.403c0.02-0.07,0.029-0.291,0.029-0.66v-2.633
			c0-0.586-0.076-1.011-0.23-1.275c-0.152-0.264-0.41-0.396-0.773-0.396c-0.561,0-1.119,0.305-1.676,0.912v3.393
			c0,0.436,0.025,0.705,0.078,0.807c0.066,0.137,0.156,0.236,0.271,0.299c0.115,0.063,0.351,0.095,0.703,0.095v0.253h-3.201v-0.253
			h0.141c0.33,0,0.553-0.083,0.668-0.249s0.174-0.483,0.174-0.951v-2.388c0-0.772-0.018-1.243-0.053-1.411
			c-0.035-0.169-0.09-0.283-0.163-0.345c-0.073-0.061-0.171-0.091-0.294-0.091c-0.131,0-0.289,0.035-0.473,0.105l-0.107-0.253
			l1.951-0.786h0.305V62.517z"/>
		<path fill="#FFFFFF" d="M67.097,60.791c1.021,0.067,1.815,0.502,2.383,1.307c0.483,0.687,0.696,1.452,0.641,2.297
			c-0.039,0.595-0.223,1.187-0.552,1.775c-0.33,0.59-0.759,1.022-1.287,1.298c-0.528,0.276-1.104,0.394-1.728,0.353
			c-1.016-0.066-1.797-0.518-2.343-1.354c-0.461-0.704-0.665-1.475-0.61-2.31c0.04-0.608,0.233-1.203,0.579-1.785
			c0.346-0.58,0.78-0.998,1.299-1.253C65.998,60.864,66.537,60.755,67.097,60.791z M66.837,61.247
			c-0.26-0.017-0.526,0.042-0.799,0.177c-0.272,0.135-0.502,0.389-0.689,0.759c-0.186,0.371-0.3,0.855-0.339,1.454
			c-0.063,0.967,0.077,1.812,0.421,2.538c0.345,0.727,0.836,1.11,1.474,1.151c0.477,0.032,0.881-0.136,1.216-0.502
			c0.335-0.365,0.533-1.02,0.595-1.962c0.078-1.178-0.119-2.122-0.591-2.832C67.806,61.543,67.377,61.282,66.837,61.247z"/>
		<path fill="#FFFFFF" d="M74.787,60.791c1.021,0.067,1.815,0.502,2.384,1.307c0.482,0.687,0.696,1.452,0.641,2.297
			c-0.039,0.595-0.224,1.187-0.553,1.775c-0.33,0.59-0.759,1.022-1.287,1.298c-0.528,0.276-1.104,0.394-1.728,0.353
			c-1.016-0.066-1.797-0.518-2.344-1.354c-0.461-0.704-0.665-1.475-0.609-2.31c0.04-0.608,0.232-1.203,0.578-1.785
			c0.347-0.58,0.78-0.998,1.299-1.253C73.688,60.864,74.227,60.755,74.787,60.791z M74.528,61.247
			c-0.26-0.017-0.526,0.042-0.798,0.177c-0.273,0.135-0.503,0.389-0.69,0.759c-0.187,0.371-0.301,0.855-0.34,1.454
			c-0.063,0.967,0.078,1.812,0.422,2.538c0.344,0.727,0.836,1.11,1.474,1.151c0.476,0.032,0.881-0.136,1.216-0.502
			c0.334-0.365,0.533-1.02,0.594-1.962c0.078-1.178-0.119-2.122-0.59-2.832C75.497,61.543,75.067,61.282,74.528,61.247z"/>
		<path fill="#FFFFFF" d="M97.782,60.791c1.021,0.067,1.815,0.502,2.384,1.307c0.483,0.687,0.696,1.452,0.641,2.297
			c-0.039,0.595-0.223,1.187-0.553,1.775c-0.33,0.59-0.759,1.022-1.287,1.298c-0.528,0.276-1.104,0.394-1.728,0.353
			c-1.016-0.066-1.797-0.518-2.344-1.354c-0.461-0.704-0.665-1.475-0.61-2.31c0.041-0.608,0.233-1.203,0.579-1.785
			c0.346-0.58,0.779-0.998,1.299-1.253C96.683,60.864,97.222,60.755,97.782,60.791z M97.523,61.247
			c-0.26-0.017-0.527,0.042-0.799,0.177c-0.273,0.135-0.502,0.389-0.69,0.759c-0.187,0.371-0.3,0.855-0.339,1.454
			c-0.063,0.967,0.077,1.812,0.421,2.538c0.344,0.727,0.835,1.11,1.474,1.151c0.476,0.032,0.881-0.136,1.216-0.502
			c0.334-0.365,0.533-1.02,0.594-1.962c0.078-1.178-0.119-2.122-0.59-2.832C98.492,61.543,98.062,61.282,97.523,61.247z"/>
		<path fill="#FFFFFF" d="M125.278,60.791c1.021,0.067,1.815,0.502,2.384,1.307c0.482,0.687,0.695,1.452,0.641,2.297
			c-0.039,0.595-0.225,1.187-0.553,1.775c-0.33,0.59-0.759,1.022-1.287,1.298c-0.529,0.276-1.104,0.394-1.728,0.353
			c-1.017-0.066-1.798-0.518-2.344-1.354c-0.462-0.704-0.665-1.475-0.61-2.31c0.041-0.608,0.233-1.203,0.579-1.785
			c0.347-0.58,0.78-0.998,1.3-1.253C124.179,60.864,124.718,60.755,125.278,60.791z M125.019,61.247
			c-0.262-0.017-0.527,0.042-0.799,0.177c-0.273,0.135-0.504,0.389-0.689,0.759c-0.188,0.371-0.301,0.855-0.341,1.454
			c-0.063,0.967,0.077,1.812,0.422,2.538c0.345,0.727,0.836,1.11,1.474,1.151c0.477,0.032,0.881-0.136,1.216-0.502
			c0.335-0.365,0.533-1.02,0.595-1.962c0.077-1.178-0.119-2.122-0.59-2.832C125.988,61.543,125.558,61.282,125.019,61.247z"/>
		<path fill="#FFFFFF" d="M151.527,60.936c1.021,0.066,1.816,0.502,2.385,1.306c0.482,0.687,0.695,1.453,0.641,2.298
			c-0.039,0.594-0.224,1.186-0.553,1.775c-0.33,0.589-0.76,1.021-1.287,1.297c-0.528,0.276-1.104,0.394-1.727,0.353
			c-1.017-0.066-1.798-0.518-2.344-1.354c-0.463-0.703-0.666-1.474-0.61-2.31c0.04-0.607,0.233-1.203,0.579-1.784
			s0.779-0.999,1.299-1.254C150.429,61.008,150.968,60.898,151.527,60.936z M151.269,61.392c-0.261-0.017-0.527,0.042-0.799,0.177
			c-0.273,0.135-0.503,0.388-0.689,0.759c-0.188,0.37-0.301,0.855-0.34,1.454c-0.064,0.967,0.076,1.812,0.422,2.537
			c0.344,0.727,0.834,1.11,1.473,1.152c0.477,0.031,0.881-0.137,1.215-0.502c0.336-0.366,0.533-1.021,0.596-1.962
			c0.077-1.179-0.119-2.122-0.591-2.832C152.238,61.688,151.808,61.427,151.269,61.392z"/>
		<path fill="#FFFFFF" d="M196.099,60.936c1.021,0.066,1.816,0.502,2.385,1.306c0.482,0.687,0.695,1.453,0.64,2.298
			c-0.038,0.594-0.224,1.186-0.552,1.775c-0.33,0.589-0.76,1.021-1.287,1.297c-0.529,0.276-1.104,0.394-1.729,0.353
			c-1.016-0.066-1.797-0.518-2.344-1.354c-0.461-0.703-0.664-1.474-0.609-2.31c0.04-0.607,0.233-1.203,0.579-1.784
			c0.347-0.581,0.78-0.999,1.3-1.254C195.001,61.008,195.541,60.898,196.099,60.936z M195.841,61.392
			c-0.262-0.017-0.527,0.042-0.8,0.177s-0.503,0.388-0.69,0.759c-0.186,0.37-0.299,0.855-0.339,1.454
			c-0.063,0.967,0.077,1.812,0.421,2.537c0.346,0.727,0.836,1.11,1.475,1.152c0.477,0.031,0.881-0.137,1.216-0.502
			c0.335-0.366,0.532-1.021,0.595-1.962c0.076-1.179-0.119-2.122-0.59-2.832C196.81,61.688,196.38,61.427,195.841,61.392z"/>
		<path fill="#FFFFFF" d="M61.952,57.04v0.288c0.288,0,0.521,0.037,0.7,0.109c0.104,0.041,0.189,0.114,0.258,0.219
			c0.068,0.104,0.103,0.215,0.103,0.334c0,0.25-0.104,0.696-0.312,1.341l-1.823,5.82l-1.958-3.99l0.774-1.83
			c0.203-0.686,0.351-1.119,0.445-1.302c0.141-0.27,0.29-0.454,0.445-0.553c0.156-0.099,0.358-0.148,0.608-0.148V57.04h-2.411v0.288
			l0.248,0.109c0,0,0.189,0.114,0.258,0.219c0.068,0.104,0.103,0.215,0.103,0.334c0,0.25-0.104,0.696-0.311,1.341l-0.513,1.112
			l-0.507-1.034c-0.212-0.659-0.318-1.122-0.318-1.388c0-0.213,0.184-0.506,0.184-0.506s0.085-0.188,0.128-0.188s0.254,0,0.254,0
			V57.04h-3.28v0.288c0.192,0,0.334,0.017,0.424,0.047c0.118,0.042,0.235,0.109,0.354,0.203c0.089,0.067,0.165,0.15,0.226,0.249
			c0.123,0.197,0.233,0.426,0.332,0.686l0.476,0.899l0.866,2.373l-1.102,3.366l-2.707-5.93c-0.208-0.654-0.312-1.072-0.312-1.254
			c0-0.177,0.066-0.327,0.198-0.452c0.132-0.125,0.324-0.188,0.573-0.188h0.17V57.04h-3.549v0.288c0.277,0,0.498,0.049,0.661,0.145
			c0.163,0.097,0.292,0.242,0.385,0.439c0.057,0.121,0.191,0.507,0.403,1.162l3.669,8.773h0.255l1.695-5.404l2.317,5.404h0.283
			l2.672-8.517c0.203-0.686,0.352-1.119,0.446-1.302c0.141-0.27,0.29-0.454,0.445-0.553c0.156-0.099,0.359-0.148,0.608-0.148V57.04
			H61.952z"/>
		<path fill="#FFFFFF" d="M89.885,57.04v0.288h0.346c0.226,0,0.44,0.062,0.643,0.188c0.151,0.094,0.25,0.205,0.297,0.335
			c0.062,0.171,0.092,0.524,0.092,1.06c0,0,0.016,9.255,0,9.573c-0.015,0.318-0.567,1.08-0.771,1.173
			c-0.205,0.093-0.641,0.271-0.785,0.102c-0.331-0.385-0.57-0.608-0.72-0.672c-0.149-0.062-0.295-0.069-0.438-0.02
			c-0.196,0.069-0.341,0.205-0.434,0.409c-0.068,0.161-0.059,0.362,0.025,0.603c0.104,0.294,0.315,0.513,0.636,0.656
			c0.319,0.144,0.689,0.142,1.107-0.006c0.377-0.133,1.117-0.696,1.223-0.752c0.011-0.003,1.064-0.88,1.277-1.609
			c0.158-0.494,0.237-1.138,0.237-1.933V58.91c0-0.633,0.057-1.033,0.169-1.2c0.179-0.254,0.465-0.382,0.856-0.382h0.346V57.04
			H89.885z"/>
	</g>
</g>
</svg>
