<?xml version="1.0" encoding="utf-8"?>
<!-- Generator: Adobe Illustrator 16.0.0, SVG Export Plug-In . SVG Version: 6.00 Build 0)  -->
<!DOCTYPE svg PUBLIC "-//W3C//DTD SVG 1.1//EN" "http://www.w3.org/Graphics/SVG/1.1/DTD/svg11.dtd">
<svg version="1.1" id="Layer_1" xmlns="http://www.w3.org/2000/svg" xmlns:xlink="http://www.w3.org/1999/xlink" x="0px" y="0px"
	 width="176px" height="81.333px" viewBox="0 0 176 81.333" enable-background="new 0 0 176 81.333" xml:space="preserve">
<g>
	<g>
		<path fill="#FFFFFF" d="M121.109,56.506c-0.909,0-1.7-0.223-2.373-0.672c-0.676-0.451-1.135-1.775-1.379-2.545
			c-1.746,1.797-4.033,2.923-6.858,2.923c-1.471,0-2.672-0.868-3.603-1.774c-0.931-0.905-1.396-2.596-1.396-3.951
			c0-3.349,2.573-5.766,11.905-6.67l0.147-3.821v-0.122c0-1.177-0.515-1.837-1.093-2.531c-0.58-0.694-1.174-0.887-2.139-0.887
			c-0.961,0-1.914-0.062-2.584,0.402c-0.668,0.464-1.27,0.952-1.285,1.655c-0.018,1.045,0.148,1.825-0.385,2.413
			c-0.529,0.588-1.236,0.881-2.117,0.881c-0.524,0-0.947-0.153-1.275-0.464c-0.324-0.31-0.473-0.998-0.473-1.52
			c0-1.257,1.127-2.305,3.414-3.686c2.285-1.38,4.408-2.069,6.368-2.069c1.765,0,3.194,0.521,4.287,1.566
			c1.097,1.045,0.923,2.45,0.923,4.215v0.293l-0.018,11.074v0.173c0,1.713,0.924,2.571,2.035,2.571c0.539,0,1.168-0.327,1.887-0.979
			l0.172-0.05c0.131,0,0.252,0.085,0.369,0.257c0.113,0.171,0.17,0.354,0.17,0.551c0,0.475-0.494,1.053-1.482,1.739
			C123.34,56.166,122.267,56.506,121.109,56.506z M117.589,45.287c-4.753,1.08-7.984,1.984-7.984,4.474
			c0,2.326,1.52,3.629,3.311,3.629c0.861,0,1.709-0.21,2.549-0.646c0.838-0.434,1.75-0.989,2.046-1.629L117.589,45.287z"/>
		<path fill="#FFFFFF" d="M147.169,38.869c2.168,0,2.594-1.911,2.594-2.31c0-0.402-0.322-1.646-2.487-1.646
			s-3.331,1.164-4.212,1.164c-0.883,0-1.646-1.886-6.32-1.886c-4.672,0-8.686,4.011-8.686,8.906c0,3.731,3.973,6.1,3.691,6.539
			c-0.28,0.442-3.489,2.567-3.489,4.455c0,2.607,3.552,3.431,3.048,3.933c-0.5,0.499-4.654,2.766-4.654,6.658
			c0,2.008,1.525,7.062,9.229,7.062c8.787,0,13.357-7.022,13.357-10.754c0-2.727-2.229-5.956-5.213-6.339
			c-3.143-0.404-8.869,0-9.911,0s-1.765-0.32-2.206-1.766c-0.44-1.444,0.24-2.286,0.762-2.447s0.883,0,4.072,0
			c6.963,0,9.129-5.737,9.129-8.257c0-2.517-0.852-3.662-1.043-3.979C144.638,37.883,145.964,38.869,147.169,38.869z
			 M134.236,58.383c2.689,0,6.219,0,7.822,0c1.605,0,3.451,1.525,3.451,4.453c0,2.93-1.963,6.219-7.301,6.219
			s-7.744-3.05-7.744-5.217C130.464,61.672,131.548,58.383,134.236,58.383z M136.925,48.995c-4.053,0-5.016-4.896-5.016-7.184
			c0-1.059,0.602-5.977,4.654-5.977c4.051,0,5.015,4.615,5.015,6.58C141.579,44.688,141.699,48.995,136.925,48.995z"/>
		<path fill="#FFFFFF" d="M167.921,43.061c0-1.58,0.199-8.917-8.525-8.917c-7.158,0-9.604,6.909-9.604,10.859
			c0,3.392,2.184,10.858,9.872,10.858c6.019,0,8.663-5.096,7.929-5.451c-1.152-0.561-1.582,2.041-6.403,2.041
			c-2.978,0-7.719-2.47-7.719-7.178v-2.213H167.921z M159.158,35.978c4.25,0,4.977,4.909,4.516,5.732h-10.182
			C153.492,41.71,154.906,35.978,159.158,35.978z"/>
		<path fill="#FFFFFF" d="M100.027,22.09c0.309,0.247-0.436,7.138-0.436,7.509c0,0.374-1.032,0.56-1.18,0
			c-0.146-0.557-1.49-7.199-7.572-7.199c-6.084,0-6.208,4.597-6.208,5.587c0,5.027,3.724,5.897,7.697,7.884s8.876,4.22,8.876,10.18
			c0,5.959-6.578,9.87-11.546,9.87c-4.964,0-7.695-1.24-8.257-1.924c-0.558-0.682-1.488-8.193-1.737-8.568
			c-0.25-0.371,1.392-0.797,1.553-0.061c1.613,7.697,7.999,8.565,9.216,8.565c1.22,0,6.487-0.991,6.487-6.206
			s-4.84-6.89-8.627-8.722c-3.786-1.831-8.133-4.253-8.133-9.343c0-5.091,5.214-9.436,11.36-9.436
			C97.667,20.227,99.715,21.841,100.027,22.09z"/>
	</g>
	<g>
		<g>
			<linearGradient id="SVGID_1_" gradientUnits="userSpaceOnUse" x1="63.5684" y1="17.3965" x2="58.8848" y2="35.0232">
				<stop  offset="0" style="stop-color:#B9B9BB;stop-opacity:0"/>
				<stop  offset="1" style="stop-color:#B5B5B7"/>
			</linearGradient>
			<path fill="url(#SVGID_1_)" d="M63.167,16.758c-0.087-0.091-0.256-0.132-0.376-0.092L46.072,22.27
				c-0.12,0.04-0.143,0.144-0.053,0.232l13.434,13.003c0.09,0.088,0.263,0.129,0.384,0.093l16.406-4.953
				c0.121-0.037,0.148-0.141,0.061-0.231L63.167,16.758z"/>
		</g>
		<g>
			<linearGradient id="SVGID_2_" gradientUnits="userSpaceOnUse" x1="29.7266" y1="7.9287" x2="25.2255" y2="24.8687">
				<stop  offset="0" style="stop-color:#B9B9BB;stop-opacity:0"/>
				<stop  offset="1" style="stop-color:#B5B5B7"/>
			</linearGradient>
			<path fill="url(#SVGID_2_)" d="M29.601,7.391c-0.086-0.092-0.255-0.139-0.376-0.104L12.59,12.021
				c-0.121,0.034-0.147,0.136-0.059,0.225l12.919,12.993c0.088,0.089,0.261,0.137,0.383,0.106l16.403-4.126
				c0.122-0.03,0.152-0.131,0.066-0.223L29.601,7.391z"/>
		</g>
		<g>
			<linearGradient id="SVGID_3_" gradientUnits="userSpaceOnUse" x1="34.9292" y1="59.5283" x2="38.7282" y2="41.2659">
				<stop  offset="0" style="stop-color:#EAF3EA"/>
				<stop  offset="0.0999" style="stop-color:#DDEDDE"/>
				<stop  offset="0.3401" style="stop-color:#C5E0C6"/>
				<stop  offset="0.5745" style="stop-color:#B3D7B5"/>
				<stop  offset="0.7983" style="stop-color:#A8D2AB"/>
				<stop  offset="1" style="stop-color:#A5D1A8"/>
			</linearGradient>
			<path fill="url(#SVGID_3_)" d="M39.601,41.328c-0.086-0.092-0.257-0.145-0.379-0.117l-17.076,3.875
				c-0.123,0.028-0.151,0.125-0.064,0.216l12.875,13.339c0.087,0.09,0.259,0.14,0.381,0.108l16.401-4.126
				c0.122-0.03,0.152-0.131,0.066-0.223L39.601,41.328z"/>
		</g>
		<g>
			<linearGradient id="SVGID_4_" gradientUnits="userSpaceOnUse" x1="7.3091" y1="29.417" x2="24.4857" y2="27.4559">
				<stop  offset="0" style="stop-color:#CAC6C7;stop-opacity:0"/>
				<stop  offset="1" style="stop-color:#C8C4C4"/>
			</linearGradient>
			<path fill="url(#SVGID_4_)" d="M11.128,13.76c0.031-0.122,0.129-0.148,0.218-0.06L24.38,26.822
				c0.088,0.089,0.135,0.262,0.104,0.384L20.34,43.15c-0.032,0.122-0.129,0.147-0.216,0.057L7.267,29.753
				c-0.087-0.091-0.133-0.266-0.102-0.388L11.128,13.76z"/>
		</g>
		<g>
			<linearGradient id="SVGID_5_" gradientUnits="userSpaceOnUse" x1="17.7686" y1="62.7549" x2="34.0563" y2="60.8953">
				<stop  offset="0" style="stop-color:#CAC6C7;stop-opacity:0"/>
				<stop  offset="1" style="stop-color:#C8C4C4"/>
			</linearGradient>
			<path fill="url(#SVGID_5_)" d="M21.351,47.273c0.028-0.122,0.122-0.148,0.208-0.057l12.39,13.05
				c0.087,0.091,0.134,0.267,0.105,0.389l-3.708,15.735c-0.029,0.123-0.124,0.148-0.211,0.059L17.801,63.646
				c-0.087-0.091-0.136-0.266-0.108-0.389L21.351,47.273z"/>
		</g>
		<g>
			<linearGradient id="SVGID_6_" gradientUnits="userSpaceOnUse" x1="57.668" y1="36.6914" x2="40.6333" y2="40.5698">
				<stop  offset="0.0021" style="stop-color:#E5F0F0"/>
				<stop  offset="0.0437" style="stop-color:#DBE9EA"/>
				<stop  offset="0.178" style="stop-color:#C1D9DE"/>
				<stop  offset="0.3254" style="stop-color:#ADCED4"/>
				<stop  offset="0.4905" style="stop-color:#A0C6CE"/>
				<stop  offset="0.6875" style="stop-color:#97C1CA"/>
				<stop  offset="1" style="stop-color:#95C0C9"/>
			</linearGradient>
			<path fill="url(#SVGID_6_)" d="M44.479,23.802c0.028-0.122,0.125-0.15,0.215-0.062l13.377,13.118
				c0.09,0.088,0.136,0.26,0.103,0.381L53.69,53.493c-0.034,0.121-0.132,0.146-0.219,0.055L40.845,40.271
				c-0.087-0.091-0.134-0.267-0.106-0.389L44.479,23.802z"/>
		</g>
		<g>
			<linearGradient id="SVGID_7_" gradientUnits="userSpaceOnUse" x1="27.1978" y1="27.0205" x2="38.1865" y2="39.7478">
				<stop  offset="0" style="stop-color:#E1F4FD"/>
				<stop  offset="0.1374" style="stop-color:#CAEBF9"/>
				<stop  offset="0.3676" style="stop-color:#A9DFF4"/>
				<stop  offset="0.5922" style="stop-color:#90D8F1"/>
				<stop  offset="0.8067" style="stop-color:#81D3EF"/>
				<stop  offset="1" style="stop-color:#7BD2EF"/>
			</linearGradient>
			<path fill="url(#SVGID_7_)" d="M26.14,27.556c0.029-0.123,0.153-0.249,0.275-0.281l16.235-4.268
				c0.122-0.032,0.198,0.042,0.169,0.165l-3.825,16.253c-0.029,0.122-0.153,0.246-0.276,0.274l-16.226,3.787
				c-0.123,0.028-0.199-0.049-0.169-0.171L26.14,27.556z"/>
		</g>
		<g>
			<linearGradient id="SVGID_8_" gradientUnits="userSpaceOnUse" x1="49.3726" y1="71.252" x2="35.3744" y2="61.6895">
				<stop  offset="0" style="stop-color:#DBDBDC;stop-opacity:0"/>
				<stop  offset="0.8156" style="stop-color:#DBDBDC"/>
			</linearGradient>
			<path fill="url(#SVGID_8_)" d="M35.691,60.981c0.028-0.123,0.15-0.25,0.272-0.282l16.673-4.474
				c0.122-0.033,0.194,0.04,0.16,0.161l-4.34,15.729c-0.034,0.121-0.16,0.248-0.282,0.282l-15.899,4.431
				c-0.122,0.033-0.198-0.039-0.169-0.162L35.691,60.981z"/>
		</g>
		<g>
			<linearGradient id="SVGID_9_" gradientUnits="userSpaceOnUse" x1="72.7573" y1="47.9414" x2="59.1808" y2="38.6669">
				<stop  offset="0" style="stop-color:#DBDBDC;stop-opacity:0"/>
				<stop  offset="0.8156" style="stop-color:#DBDBDC"/>
			</linearGradient>
			<path fill="url(#SVGID_9_)" d="M59.77,37.561c0.035-0.121,0.161-0.25,0.282-0.286l15.533-4.636
				c0.121-0.036,0.196,0.035,0.168,0.158l-3.56,15.5c-0.028,0.123-0.15,0.252-0.271,0.288l-16.423,4.802
				c-0.121,0.035-0.192-0.035-0.158-0.156L59.77,37.561z"/>
		</g>
	</g>
	
		<text transform="matrix(1.0412 0 0 1 60.1079 66.8711)" fill="#FFFFFF" stroke="#FFFFFF" stroke-width="0.0463" stroke-miterlimit="10" font-family="'Myriad-Roman'" font-size="8.7924">BIONETWORKS</text>
</g>
</svg>
