<?xml version="1.0" encoding="utf-8"?>
<!-- Generator: Adobe Illustrator 16.0.0, SVG Export Plug-In . SVG Version: 6.00 Build 0)  -->
<!DOCTYPE svg PUBLIC "-//W3C//DTD SVG 1.1//EN" "http://www.w3.org/Graphics/SVG/1.1/DTD/svg11.dtd">
<svg version="1.1" id="Layer_1" xmlns="http://www.w3.org/2000/svg" xmlns:xlink="http://www.w3.org/1999/xlink" x="0px" y="0px"
	 width="152.62px" height="69.615px" viewBox="0 0 152.62 69.615" enable-background="new 0 0 152.62 69.615" xml:space="preserve">
<g>
	<g>
		<path fill="#00754A" d="M103.392,47.968c-0.748,0-1.398-0.185-1.953-0.555c-0.555-0.369-0.934-1.461-1.133-2.093
			c-1.439,1.479-3.32,2.405-5.646,2.405c-1.209,0-2.197-0.715-2.965-1.46c-0.766-0.745-1.148-2.137-1.148-3.253
			c0-2.756,2.117-4.745,9.799-5.489l0.123-3.146v-0.102c0-0.967-0.424-1.51-0.9-2.082c-0.479-0.571-0.967-0.73-1.76-0.73
			s-1.576-0.053-2.127,0.331s-1.045,0.784-1.059,1.362c-0.014,0.861,0.121,1.503-0.314,1.987c-0.438,0.484-1.02,0.726-1.744,0.726
			c-0.432,0-0.781-0.128-1.049-0.383c-0.27-0.255-0.389-0.82-0.389-1.25c0-1.036,0.926-1.899,2.807-3.035
			c1.883-1.136,3.631-1.704,5.244-1.704c1.451,0,2.627,0.43,3.527,1.29s0.76,2.017,0.76,3.469v0.241l-0.016,9.114v0.143
			c0,1.41,0.762,2.115,1.676,2.115c0.443,0,0.961-0.268,1.553-0.806l0.143-0.04c0.105,0,0.207,0.07,0.301,0.211
			c0.094,0.142,0.141,0.293,0.141,0.454c0,0.391-0.406,0.867-1.219,1.431C105.23,47.687,104.345,47.968,103.392,47.968z
			 M100.496,38.733c-3.912,0.889-6.57,1.634-6.57,3.682c0,1.915,1.248,2.987,2.723,2.987c0.711,0,1.41-0.174,2.1-0.531
			c0.689-0.356,1.441-0.813,1.682-1.34L100.496,38.733z"/>
		<path fill="#00754A" d="M124.841,33.451c1.783,0,2.135-1.572,2.135-1.902s-0.264-1.354-2.047-1.354
			c-1.781,0-2.74,0.958-3.467,0.958s-1.354-1.553-5.201-1.553c-3.846,0-7.148,3.302-7.148,7.331c0,3.071,3.27,5.02,3.037,5.383
			c-0.23,0.363-2.871,2.113-2.871,3.666c0,2.145,2.922,2.822,2.51,3.236c-0.412,0.412-3.832,2.277-3.832,5.48
			c0,1.651,1.256,5.812,7.596,5.812c7.23,0,10.996-5.779,10.996-8.85c0-2.246-1.836-4.902-4.293-5.219c-2.586-0.332-7.299,0-8.156,0
			c-0.859,0-1.453-0.264-1.816-1.453c-0.361-1.188,0.197-1.881,0.627-2.014s0.727,0,3.352,0c5.73,0,7.512-4.722,7.512-6.795
			s-0.701-3.014-0.857-3.276C122.757,32.641,123.849,33.451,124.841,33.451z M114.197,49.512c2.213,0,5.119,0,6.439,0
			s2.84,1.256,2.84,3.665c0,2.412-1.617,5.119-6.01,5.119s-6.373-2.51-6.373-4.293S111.984,49.512,114.197,49.512z M116.41,41.785
			c-3.334,0-4.127-4.028-4.127-5.911c0-0.872,0.494-4.92,3.83-4.92s4.129,3.798,4.129,5.415
			C120.242,38.239,120.339,41.785,116.41,41.785z"/>
		<path fill="#00754A" d="M141.921,36.901c0-1.302,0.166-7.339-7.018-7.339c-5.891,0-7.902,5.685-7.902,8.938
			c0,2.79,1.795,8.937,8.125,8.937c4.953,0,7.131-4.193,6.525-4.486c-0.949-0.461-1.301,1.68-5.27,1.68
			c-2.451,0-6.354-2.033-6.354-5.908v-1.82H141.921z M134.708,31.071c3.5,0,4.096,4.041,3.717,4.719h-8.381
			C130.044,35.79,131.21,31.071,134.708,31.071z"/>
		<path fill="#00754A" d="M86.041,19.641c0.256,0.204-0.357,5.875-0.357,6.182c0,0.307-0.85,0.46-0.971,0
			c-0.119-0.459-1.227-5.926-6.232-5.926c-5.007,0-5.109,3.782-5.109,4.598c0,4.139,3.066,4.854,6.335,6.489
			c3.27,1.635,7.305,3.474,7.305,8.379c0,4.904-5.414,8.123-9.502,8.123c-4.087,0-6.335-1.021-6.794-1.584
			c-0.461-0.562-1.227-6.744-1.432-7.051c-0.203-0.307,1.146-0.657,1.277-0.051c1.33,6.334,6.583,7.051,7.587,7.051
			c1.002,0,5.338-0.818,5.338-5.109c0-4.292-3.984-5.671-7.101-7.178c-3.115-1.507-6.691-3.5-6.691-7.689
			c0-4.189,4.291-7.766,9.349-7.766C84.099,18.108,85.787,19.437,86.041,19.641z"/>
	</g>
	<g>
		<g>
			<linearGradient id="SVGID_1_" gradientUnits="userSpaceOnUse" x1="56.0366" y1="15.7793" x2="52.1821" y2="30.2858">
				<stop  offset="0" style="stop-color:#DCDCDD"/>
				<stop  offset="0.4909" style="stop-color:#C7C6C8"/>
				<stop  offset="1" style="stop-color:#B5B5B7"/>
			</linearGradient>
			<path fill="url(#SVGID_1_)" d="M55.705,15.253c-0.072-0.075-0.211-0.109-0.309-0.076l-13.76,4.612
				c-0.1,0.033-0.117,0.119-0.043,0.191l11.055,10.701c0.074,0.072,0.217,0.106,0.316,0.077l13.504-4.076
				c0.1-0.03,0.121-0.115,0.049-0.19L55.705,15.253z"/>
		</g>
		<g>
			<linearGradient id="SVGID_2_" gradientUnits="userSpaceOnUse" x1="28.1802" y1="7.9863" x2="24.4758" y2="21.9278">
				<stop  offset="0" style="stop-color:#DCDCDD"/>
				<stop  offset="0.4909" style="stop-color:#C7C6C8"/>
				<stop  offset="1" style="stop-color:#B5B5B7"/>
			</linearGradient>
			<path fill="url(#SVGID_2_)" d="M28.078,7.544c-0.07-0.076-0.209-0.114-0.309-0.086l-13.691,3.896
				c-0.1,0.028-0.121,0.112-0.047,0.186l10.633,10.693c0.072,0.074,0.215,0.113,0.314,0.088l13.5-3.396
				c0.1-0.025,0.125-0.108,0.055-0.184L28.078,7.544z"/>
		</g>
		<g>
			<linearGradient id="SVGID_3_" gradientUnits="userSpaceOnUse" x1="32.4448" y1="50.4502" x2="35.5713" y2="35.4205">
				<stop  offset="0" style="stop-color:#EAF3EA"/>
				<stop  offset="0.0999" style="stop-color:#DDEDDE"/>
				<stop  offset="0.3401" style="stop-color:#C5E0C6"/>
				<stop  offset="0.5745" style="stop-color:#B3D7B5"/>
				<stop  offset="0.7983" style="stop-color:#A8D2AB"/>
				<stop  offset="1" style="stop-color:#A5D1A8"/>
			</linearGradient>
			<path fill="url(#SVGID_3_)" d="M36.309,35.475c-0.07-0.076-0.211-0.119-0.312-0.096l-14.094,3.19
				c-0.102,0.022-0.125,0.102-0.053,0.176l10.637,10.979c0.072,0.074,0.213,0.115,0.314,0.09l13.498-3.396
				c0.1-0.026,0.125-0.108,0.055-0.185L36.309,35.475z"/>
		</g>
		<g>
			<linearGradient id="SVGID_4_" gradientUnits="userSpaceOnUse" x1="9.4316" y1="25.7666" x2="23.8757" y2="24.1175">
				<stop  offset="0" style="stop-color:#E4E4E4"/>
				<stop  offset="0.5025" style="stop-color:#D7D5D6"/>
				<stop  offset="1" style="stop-color:#C8C4C4"/>
			</linearGradient>
			<path fill="url(#SVGID_4_)" d="M12.871,12.785c0.027-0.1,0.109-0.122,0.184-0.048l10.727,10.798
				c0.074,0.074,0.113,0.216,0.086,0.316l-3.41,13.243c-0.025,0.102-0.105,0.122-0.178,0.048L9.377,25.907
				c-0.072-0.074-0.107-0.217-0.08-0.317L12.871,12.785z"/>
		</g>
		<g>
			<linearGradient id="SVGID_5_" gradientUnits="userSpaceOnUse" x1="17.3442" y1="53.1348" x2="31.7327" y2="51.492">
				<stop  offset="0" style="stop-color:#E4E4E4"/>
				<stop  offset="0.5025" style="stop-color:#D7D5D6"/>
				<stop  offset="1" style="stop-color:#C8C4C4"/>
			</linearGradient>
			<path fill="url(#SVGID_5_)" d="M21.119,40.204c0.027-0.1,0.109-0.119,0.182-0.044l10.355,10.901
				c0.072,0.076,0.111,0.22,0.088,0.32l-3.051,12.951c-0.023,0.102-0.105,0.126-0.18,0.055L17.371,53.929
				c-0.076-0.07-0.115-0.21-0.086-0.31L21.119,40.204z"/>
		</g>
		<g>
			<linearGradient id="SVGID_6_" gradientUnits="userSpaceOnUse" x1="51.1797" y1="31.6582" x2="37.1596" y2="34.8502">
				<stop  offset="0.0021" style="stop-color:#E5F0F0"/>
				<stop  offset="0.0437" style="stop-color:#DBE9EA"/>
				<stop  offset="0.178" style="stop-color:#C1D9DE"/>
				<stop  offset="0.3254" style="stop-color:#ADCED4"/>
				<stop  offset="0.4905" style="stop-color:#A0C6CE"/>
				<stop  offset="0.6875" style="stop-color:#97C1CA"/>
				<stop  offset="1" style="stop-color:#95C0C9"/>
			</linearGradient>
			<path fill="url(#SVGID_6_)" d="M40.322,21.051C40.346,20.95,40.426,20.927,40.5,21l11.012,10.796
				c0.074,0.072,0.111,0.213,0.084,0.313l-3.691,13.378c-0.027,0.1-0.109,0.12-0.18,0.045L37.334,34.605
				c-0.072-0.075-0.111-0.219-0.088-0.32L40.322,21.051z"/>
		</g>
		<g>
			<linearGradient id="SVGID_7_" gradientUnits="userSpaceOnUse" x1="25.9883" y1="23.7959" x2="35.0324" y2="34.2709">
				<stop  offset="0" style="stop-color:#E1F4FD"/>
				<stop  offset="0.1374" style="stop-color:#CAEBF9"/>
				<stop  offset="0.3676" style="stop-color:#A9DFF4"/>
				<stop  offset="0.5922" style="stop-color:#90D8F1"/>
				<stop  offset="0.8067" style="stop-color:#81D3EF"/>
				<stop  offset="1" style="stop-color:#7BD2EF"/>
			</linearGradient>
			<path fill="url(#SVGID_7_)" d="M25.227,24.138c0.025-0.1,0.129-0.204,0.23-0.23l13.361-3.511
				c0.102-0.026,0.164,0.035,0.139,0.136l-3.148,13.374c-0.023,0.101-0.125,0.203-0.227,0.227l-13.68,3.192
				c-0.102,0.024-0.162-0.039-0.135-0.14L25.227,24.138z"/>
		</g>
		<g>
			<linearGradient id="SVGID_8_" gradientUnits="userSpaceOnUse" x1="44.3516" y1="60.3857" x2="32.8296" y2="52.5149">
				<stop  offset="0" style="stop-color:#EFEEEF"/>
				<stop  offset="0.8156" style="stop-color:#DBDBDC"/>
			</linearGradient>
			<path fill="url(#SVGID_8_)" d="M33.09,51.933c0.023-0.102,0.123-0.206,0.225-0.232l13.725-3.684
				c0.1-0.027,0.158,0.033,0.131,0.133l-3.572,12.945c-0.027,0.1-0.131,0.205-0.23,0.232l-13.088,3.648
				c-0.1,0.027-0.162-0.032-0.141-0.133L33.09,51.933z"/>
		</g>
		<g>
			<linearGradient id="SVGID_9_" gradientUnits="userSpaceOnUse" x1="63.6694" y1="40.9424" x2="52.2172" y2="33.1191">
				<stop  offset="0" style="stop-color:#EFEEEF"/>
				<stop  offset="0.8156" style="stop-color:#DBDBDC"/>
			</linearGradient>
			<path fill="url(#SVGID_9_)" d="M52.748,32.133c0.029-0.1,0.133-0.204,0.234-0.231l12.939-3.581
				c0.102-0.028,0.164,0.032,0.141,0.133l-2.932,12.876c-0.021,0.102-0.123,0.206-0.223,0.232l-13.676,3.68
				c-0.1,0.026-0.158-0.033-0.131-0.133L52.748,32.133z"/>
		</g>
	</g>
	
		<text transform="matrix(1.0412 0 0 1 53.1885 56.4971)" fill="#868686" stroke="#848484" stroke-width="0.0432" stroke-miterlimit="10" font-family="'Myriad-Roman'" font-size="7.2365">BIONETWORKS</text>
</g>
</svg>
