<?xml version="1.0" encoding="utf-8"?>
<!-- Generator: Adobe Illustrator 16.0.0, SVG Export Plug-In . SVG Version: 6.00 Build 0)  -->
<!DOCTYPE svg PUBLIC "-//W3C//DTD SVG 1.1//EN" "http://www.w3.org/Graphics/SVG/1.1/DTD/svg11.dtd">
<svg version="1.1" id="Layer_1" xmlns="http://www.w3.org/2000/svg" xmlns:xlink="http://www.w3.org/1999/xlink" x="0px" y="0px"
	 width="121px" height="209px" viewBox="0 0 121 209" enable-background="new 0 0 121 209" xml:space="preserve">
<path fill="#4788C8" d="M106.274,4.615L13.915,5.057c-5.303,0.024-9.576,4.346-9.551,9.646l0.869,180.681
	c0.023,5.299,4.34,9.577,9.643,9.551l92.352-0.441c5.305-0.029,9.58-4.346,9.555-9.649l-0.869-180.676
	C115.89,8.865,111.571,4.589,106.274,4.615z M61.042,202.021c-4.863,0.024-8.824-3.898-8.842-8.758
	c-0.029-4.858,3.895-8.818,8.754-8.843c4.859-0.02,8.818,3.899,8.842,8.759C69.815,198.037,65.901,202,61.042,202.021z
	 M108.853,179.098l-95.844,0.459L12.321,36.731l95.846-0.461L108.853,179.098z"/>
<g>
	<text transform="matrix(1 0 0 1 17.2041 79.1641)" fill="#AAD485" font-family="'Arial-Black'" font-size="31.2773">1100</text>
	<text transform="matrix(1 0 0 1 17.2041 117.5508)" fill="#AAD485" font-family="'Arial-Black'" font-size="31.2773">1010</text>
	<text transform="matrix(1 0 0 1 18.626 154.5127)" fill="#AAD485" font-family="'Arial-Black'" font-size="31.2773">0101</text>
</g>
</svg>
